<?xml version="1.0" encoding="UTF-8"?>
<svg version="1.1" xmlns="http://www.w3.org/2000/svg" width="1024" height="1024">
<path d="M0 0 C1.14679733 -0.00817749 2.29359467 -0.01635498 3.47514343 -0.02478027 C7.2488049 -0.0494577 11.02242862 -0.06612364 14.79614258 -0.08056641 C16.75817847 -0.08855192 16.75817847 -0.08855192 18.75985146 -0.09669876 C24.28552774 -0.11831812 29.81120153 -0.13702616 35.33690929 -0.14832115 C42.42856177 -0.16293241 49.5198433 -0.18695087 56.61132812 -0.23925781 C93.21496348 -0.50336707 129.44343337 -0.54873486 165.20109558 8.26724243 C168.79072492 9.1411497 172.3875075 9.93496256 176.00317383 10.69287109 C197.39640712 15.25288001 218.30938884 21.09500281 239.00317383 28.19287109 C241.00308009 28.83899465 243.00307714 29.48483724 245.00317383 30.13037109 C250.92538617 32.1017814 256.70257599 34.40452102 262.47973633 36.75927734 C265.31142211 37.91141557 268.15241608 39.02700472 271.00317383 40.13037109 C277.09446578 42.56889489 283.00382686 45.40566218 288.9309082 48.21337891 C291.08259985 49.23041318 293.23774126 50.23981539 295.39379883 51.24755859 C302.98114606 54.7974486 310.5430429 58.38032261 318.00317383 62.19287109 C318.00317383 62.85287109 318.00317383 63.51287109 318.00317383 64.19287109 C318.80754883 64.41974609 319.61192383 64.64662109 320.44067383 64.88037109 C328.19499004 67.73722444 335.22167039 72.45900331 342.25317383 76.75537109 C343.41719727 77.45823242 343.41719727 77.45823242 344.60473633 78.17529297 C348.62995198 80.63094928 352.37413761 83.16529526 356.00317383 86.19287109 C357.65388779 87.21899058 359.32287389 88.21595252 361.00317383 89.19287109 C362.42429264 90.03960982 363.84069909 90.89429024 365.25317383 91.75537109 C366.2818457 92.37605469 366.2818457 92.37605469 367.33129883 93.00927734 C369.00317383 94.19287109 369.00317383 94.19287109 370.00317383 96.19287109 C371.65448747 97.21802524 373.32437483 98.21337546 375.00317383 99.19287109 C376.87101318 100.50698218 378.72490723 101.84109813 380.56567383 103.19287109 C381.49508789 103.87349609 382.42450195 104.55412109 383.38208008 105.25537109 C384.67952148 106.21443359 384.67952148 106.21443359 386.00317383 107.19287109 C386.77532227 107.72912109 387.5474707 108.26537109 388.34301758 108.81787109 C388.89086914 109.27162109 389.4387207 109.72537109 390.00317383 110.19287109 C390.00317383 110.85287109 390.00317383 111.51287109 390.00317383 112.19287109 C390.88610107 112.35480957 390.88610107 112.35480957 391.78686523 112.52001953 C394.28391601 113.27810192 395.52579762 114.2303081 397.46411133 115.95849609 C398.1009082 116.51923828 398.73770508 117.07998047 399.39379883 117.65771484 C400.04864258 118.24681641 400.70348633 118.83591797 401.37817383 119.44287109 C402.67721275 120.59440958 403.97668648 121.74545777 405.27661133 122.89599609 C405.90019531 123.45351562 406.5237793 124.01103516 407.16625977 124.58544922 C408.90178909 126.10415271 410.67899811 127.54957848 412.47973633 128.98974609 C413.3124707 129.71677734 414.14520508 130.44380859 415.00317383 131.19287109 C415.00317383 131.85287109 415.00317383 132.51287109 415.00317383 133.19287109 C415.58583008 133.46099609 416.16848633 133.72912109 416.76879883 134.00537109 C419.03103983 135.207681 420.80893701 136.53113022 422.75317383 138.19287109 C423.36676758 138.70849609 423.98036133 139.22412109 424.61254883 139.75537109 C426.00317383 141.19287109 426.00317383 141.19287109 426.00317383 143.19287109 C426.96223633 143.59505859 426.96223633 143.59505859 427.94067383 144.00537109 C430.00317383 145.19287109 430.00317383 145.19287109 431.00317383 148.19287109 C431.66317383 148.52287109 432.32317383 148.85287109 433.00317383 149.19287109 C433.66317383 149.52287109 434.32317383 149.85287109 435.00317383 150.19287109 C435.33317383 151.18287109 435.66317383 152.17287109 436.00317383 153.19287109 C436.66317383 153.52287109 437.32317383 153.85287109 438.00317383 154.19287109 C438.66317383 154.52287109 439.32317383 154.85287109 440.00317383 155.19287109 C440.33317383 156.18287109 440.66317383 157.17287109 441.00317383 158.19287109 C442.33132628 158.86980041 443.66556116 159.53483266 445.00317383 160.19287109 C446.90551758 162.04833984 446.90551758 162.04833984 448.94067383 164.38037109 C450.11436523 165.71841797 450.11436523 165.71841797 451.31176758 167.08349609 C451.7395752 167.57785156 452.16738281 168.07220703 452.6081543 168.58154297 C454.11988368 170.32767771 455.64127186 172.06510944 457.16333008 173.80224609 C485.00317383 205.65670275 485.00317383 205.65670275 485.00317383 210.19287109 C485.66317383 210.19287109 486.32317383 210.19287109 487.00317383 210.19287109 C488.05479532 211.82745667 489.04710149 213.50062305 490.00317383 215.19287109 C490.98965721 216.61898294 491.99049131 218.03524239 493.00317383 219.44287109 C500.84737019 230.58030601 508.08496444 242.12722894 515.01879883 253.84912109 C516.19948106 255.83861714 517.39280984 257.82082816 518.61254883 259.78662109 C522.88604086 266.67935018 526.43254723 273.89114016 530.00073242 281.16455078 C530.96278681 283.11115279 531.94170874 285.04800574 532.92895508 286.98193359 C535.88313719 292.77871619 538.65333748 298.55783816 540.97583008 304.63818359 C542.20462366 307.69381479 543.59801857 310.65186245 545.00317383 313.63037109 C547.2041316 318.35611832 549.15543094 323.0705651 550.87426758 327.98974609 C551.77788577 330.55364545 552.70961385 333.10062279 553.66333008 335.64599609 C557.07340746 344.7529733 560.30034451 353.84644603 563.00317383 363.19287109 C563.4692201 364.76842138 563.93537467 366.34393963 564.40161133 367.91943359 C573.66816582 399.49777883 579.70201682 431.46643745 583.00317383 464.19287109 C583.08971222 465.04447815 583.17625061 465.89608521 583.26541138 466.77349854 C584.0499737 475.18069953 584.21606779 483.56833538 584.27661133 492.00537109 C584.28284893 492.74968824 584.28908653 493.49400539 584.29551315 494.26087761 C584.34134995 499.90484838 584.36462007 505.548738 584.37817383 511.19287109 C584.38047501 512.02024403 584.38277618 512.84761696 584.38514709 513.7000618 C584.43331193 534.43216249 584.28668448 555.02039181 581.75317383 575.63037109 C581.65075378 576.47156494 581.54833374 577.31275879 581.44281006 578.17944336 C580.14038154 588.5094211 578.17684299 598.66339228 575.94018555 608.82861328 C574.71001009 614.44971419 573.71227226 620.10887118 572.71411133 625.77490234 C572.0355872 629.03703757 571.06919044 632.04080628 570.00317383 635.19287109 C569.53837628 637.2911768 569.10243985 639.39601755 568.69067383 641.50537109 C563.05450045 668.13905312 553.34172163 694.94004429 541.68041992 719.49438477 C539.50155661 724.08269478 537.45076192 728.71592166 535.44067383 733.38037109 C532.53200699 740.1140331 529.37303589 746.67533569 526.00317383 753.19287109 C525.34317383 753.19287109 524.68317383 753.19287109 524.00317383 753.19287109 C523.79692383 754.14162109 523.59067383 755.09037109 523.37817383 756.06787109 C522.15379725 760.37489791 519.93428887 763.87880549 517.57348633 767.65380859 C516.14529056 769.96308036 514.84337424 772.29824052 513.56567383 774.69287109 C511.31954585 778.78581541 508.69816257 782.50319444 505.97583008 786.29052734 C503.11703971 790.49662882 500.56339274 794.87465147 498.02368164 799.27929688 C495.21289259 804.08801171 495.21289259 804.08801171 493.00317383 805.19287109 C491.96960236 806.83892936 490.9762773 808.51035886 490.00317383 810.19287109 C484.89269692 817.9787715 479.46192645 825.24029803 473.42895508 832.33349609 C469.11732664 837.41580208 464.97385188 842.63978076 460.90161133 847.91552734 C459.00317383 850.19287109 459.00317383 850.19287109 457.00317383 851.19287109 C456.73504883 851.77037109 456.46692383 852.34787109 456.19067383 852.94287109 C454.59694064 855.96257608 452.47576968 857.82777941 450.00317383 860.19287109 C446.01275192 864.09107737 442.11489729 868.000464 438.50317383 872.25537109 C435.59191186 875.64194114 432.45031745 878.51753406 429.05004883 881.40380859 C424.98056846 884.96072082 421.22287212 888.86391304 417.49536133 892.77490234 C415.30528285 895.0502234 414.06622863 896.17185283 411.00317383 897.19287109 C409.85424069 898.30801208 408.71071629 899.42948597 407.60083008 900.58349609 C405.56856014 902.63067266 403.45410937 904.56945192 401.31567383 906.50537109 C400.16518555 907.55144531 400.16518555 907.55144531 398.99145508 908.61865234 C397.00317383 910.19287109 397.00317383 910.19287109 395.00317383 910.19287109 C395.00317383 910.85287109 395.00317383 911.51287109 395.00317383 912.19287109 C394.40504883 912.46099609 393.80692383 912.72912109 393.19067383 913.00537109 C391.03319994 914.03826421 391.03319994 914.03826421 389.75708008 915.46240234 C387.27932191 917.90705016 384.51762712 919.96291156 381.75317383 922.06787109 C380.88136475 922.73387329 380.88136475 922.73387329 379.99194336 923.41333008 C368.8248758 931.91897044 368.8248758 931.91897044 365.00317383 933.19287109 C364.40504883 933.79615234 363.80692383 934.39943359 363.19067383 935.02099609 C360.66674837 937.52689352 358.06085408 939.12924702 355.00317383 940.94287109 C350.55072869 943.6084259 346.21895422 946.37549644 341.94067383 949.31787109 C337.07612514 952.60385762 332.10524493 955.28281025 326.79223633 957.77099609 C323.92107156 959.16499391 323.92107156 959.16499391 321.12036133 961.12646484 C317.69240979 963.39887883 314.19372706 965.20768687 310.50317383 967.00537109 C309.06944486 967.71082551 307.63585336 968.41655939 306.20239258 969.12255859 C305.49131348 969.47157227 304.78023437 969.82058594 304.04760742 970.18017578 C302.21814026 971.08638903 300.4007842 972.01695719 298.58520508 972.95068359 C289.03320865 977.8579219 279.22078726 982.06004023 269.32348633 986.21630859 C267.43184717 987.01245302 265.5449194 987.81978421 263.65942383 988.63037109 C250.4046001 994.28973403 236.82388521 999.12069721 223.00317383 1003.19287109 C221.41934023 1003.6808336 219.83604826 1004.17055611 218.25317383 1004.66162109 C209.29895814 1007.42463622 200.40617236 1009.99074979 191.19506836 1011.76708984 C188.43965295 1012.3023365 185.68838456 1012.8571814 182.93676758 1013.41162109 C177.58647646 1014.48843146 172.23491025 1015.55847553 166.88110352 1016.61767578 C165.11972234 1016.96971294 163.35959247 1017.32818283 161.60180664 1017.69775391 C132.7995149 1023.70581729 103.91553747 1024.69514117 74.59654236 1024.69231415 C72.03402614 1024.69286447 69.47156444 1024.6987275 66.90905762 1024.7053833 C48.04322964 1024.73881416 29.53640483 1024.26313726 10.82226562 1021.58692932 C6.73364773 1021.01541422 2.63563541 1020.52894797 -1.46342468 1020.03892517 C-9.49577242 1019.06221298 -17.33803397 1017.85767886 -25.19213867 1015.86865234 C-27.97618022 1015.19784567 -30.72746207 1014.73755178 -33.55932617 1014.31787109 C-39.18017963 1013.42602901 -44.66565991 1012.12882922 -50.18432617 1010.75537109 C-51.01585205 1010.54992676 -51.84737793 1010.34448242 -52.70410156 1010.1328125 C-57.54604881 1008.905872 -62.26381831 1007.47188871 -66.98925781 1005.85571289 C-69.50412302 1005.02537615 -72.04002894 1004.40429701 -74.62182617 1003.81787109 C-86.76385944 1000.85152626 -98.45397838 996.36678078 -110.11181641 991.90771484 C-111.38729261 991.42402176 -112.66556629 990.94765243 -113.94628906 990.47802734 C-118.90796892 988.65494665 -123.73801754 986.60829774 -128.55932617 984.44287109 C-129.3351001 984.09579102 -130.11087402 983.74871094 -130.91015625 983.39111328 C-151.05325104 974.35088411 -151.05325104 974.35088411 -156.72338867 971.07177734 C-159.41947408 969.52426293 -162.04505327 968.34690592 -164.91088867 967.17333984 C-168.76794737 965.3603778 -172.37923258 963.10039104 -176.03198242 960.91162109 C-178.96783184 959.2096794 -181.9592236 957.70352867 -184.99682617 956.19287109 C-186.52917196 955.31687578 -188.05044668 954.42119534 -189.55932617 953.50537109 C-190.82969727 952.73580078 -190.82969727 952.73580078 -192.12573242 951.95068359 C-196.52767086 949.25561924 -200.92084784 946.54651334 -205.30932617 943.82958984 C-207.84604529 942.23356354 -207.84604529 942.23356354 -209.99682617 941.19287109 C-209.99682617 940.53287109 -209.99682617 939.87287109 -209.99682617 939.19287109 C-210.71870117 938.92474609 -211.44057617 938.65662109 -212.18432617 938.38037109 C-214.99449 937.19385748 -217.48099174 935.91801471 -219.99682617 934.19287109 C-219.99682617 933.53287109 -219.99682617 932.87287109 -219.99682617 932.19287109 C-220.87624878 932.02198975 -220.87624878 932.02198975 -221.7734375 931.84765625 C-224.1769262 931.13983186 -225.58918697 930.23243398 -227.57104492 928.71630859 C-228.23426758 928.21381592 -228.89749023 927.71132324 -229.58081055 927.19360352 C-230.2749707 926.65711182 -230.96913086 926.12062012 -231.68432617 925.56787109 C-232.40040039 925.02171143 -233.11647461 924.47555176 -233.85424805 923.9128418 C-235.90624255 922.34524264 -237.95173621 920.7694591 -239.99682617 919.19287109 C-240.91077148 918.49806641 -241.8247168 917.80326172 -242.76635742 917.08740234 C-246.97353195 913.86755073 -250.98354208 910.49102604 -254.93432617 906.96240234 C-257.94425674 904.38001874 -261.1195221 902.02797562 -264.30932617 899.67333984 C-264.86620117 899.18478516 -265.42307617 898.69623047 -265.99682617 898.19287109 C-265.99682617 897.53287109 -265.99682617 896.87287109 -265.99682617 896.19287109 C-266.57948242 895.92474609 -267.16213867 895.65662109 -267.76245117 895.38037109 C-270.02469218 894.17806119 -271.80258935 892.85461197 -273.74682617 891.19287109 C-274.36041992 890.67724609 -274.97401367 890.16162109 -275.60620117 889.63037109 C-276.99682617 888.19287109 -276.99682617 888.19287109 -276.99682617 886.19287109 C-277.63620117 885.92474609 -278.27557617 885.65662109 -278.93432617 885.38037109 C-280.99682617 884.19287109 -280.99682617 884.19287109 -281.99682617 881.19287109 C-283.32021249 880.50667078 -284.65632565 879.84500648 -285.99682617 879.19287109 C-288.18517549 877.64658025 -290.02092208 876.03405445 -291.99682617 874.19287109 C-291.99682617 873.20287109 -291.99682617 872.21287109 -291.99682617 871.19287109 C-292.63620117 870.92474609 -293.27557617 870.65662109 -293.93432617 870.38037109 C-295.99682617 869.19287109 -295.99682617 869.19287109 -296.99682617 866.19287109 C-297.65682617 865.86287109 -298.31682617 865.53287109 -298.99682617 865.19287109 C-300.99682617 864.19287109 -300.99682617 864.19287109 -301.99682617 861.19287109 C-303.31886479 860.50407786 -304.65383413 859.83985996 -305.99682617 859.19287109 C-307.69995117 857.53662109 -307.69995117 857.53662109 -309.24682617 855.69287109 C-309.76760742 855.08443359 -310.28838867 854.47599609 -310.82495117 853.84912109 C-311.99682617 852.19287109 -311.99682617 852.19287109 -311.99682617 850.19287109 C-312.65682617 850.19287109 -313.31682617 850.19287109 -313.99682617 850.19287109 C-315.74181597 848.14493168 -317.37774063 846.08728342 -318.99682617 843.94287109 C-319.99257518 842.64603203 -320.99000239 841.35048 -321.98901367 840.05615234 C-322.49271484 839.40340332 -322.99641602 838.7506543 -323.51538086 838.078125 C-325.64696113 835.365524 -327.88122005 832.7537767 -330.12182617 830.13037109 C-343.99682617 813.60933744 -343.99682617 813.60933744 -343.99682617 809.19287109 C-344.65682617 809.19287109 -345.31682617 809.19287109 -345.99682617 809.19287109 C-347.65008798 806.95326049 -349.18019073 804.71758769 -350.68432617 802.38037109 C-351.13348389 801.69330078 -351.5826416 801.00623047 -352.04541016 800.29833984 C-353.36971337 798.2677258 -354.68418104 796.23103409 -355.99682617 794.19287109 C-356.62331055 793.22994141 -357.24979492 792.26701172 -357.89526367 791.27490234 C-362.40449122 784.27819012 -366.6817865 777.14294065 -370.92993164 769.98583984 C-371.8952189 768.36362711 -372.86933819 766.74667781 -373.84448242 765.13037109 C-378.29619736 757.66690369 -382.18711008 749.98538413 -386.01049805 742.18896484 C-386.96579451 740.25567181 -387.93824886 738.33226074 -388.91870117 736.41162109 C-391.84712662 730.66597623 -394.61513651 724.93966186 -396.91479492 718.91162109 C-398.00415713 716.17445106 -399.1989222 713.49575951 -400.41186523 710.81152344 C-404.58336335 701.54480593 -407.94678852 692.07342285 -411.2097168 682.45483398 C-411.98184296 680.23592923 -412.80026395 678.04029745 -413.63745117 675.84521484 C-414.83364756 672.63129638 -415.69288844 669.54278212 -416.47729492 666.22021484 C-416.99329263 664.20665989 -417.62467172 662.28003721 -418.30932617 660.31787109 C-422.07796661 649.24151163 -425.01400526 637.8682388 -427.32104492 626.40380859 C-427.81655348 624.04942687 -428.3813854 621.70935408 -428.98510742 619.38037109 C-430.12138444 614.90049868 -430.82189004 610.3866695 -431.49682617 605.81787109 C-432.19640505 601.12838628 -432.9224755 596.4841746 -433.96166992 591.85693359 C-435.51771763 584.22771014 -436.08218181 576.44579579 -436.80175781 568.70263672 C-437.05490586 565.99023334 -437.31917781 563.27908591 -437.5847168 560.56787109 C-437.75531926 558.77106058 -437.92525992 556.97418709 -438.09448242 555.17724609 C-438.17054214 554.40346619 -438.24660187 553.62968628 -438.32496643 552.8324585 C-439.92909787 535.23368588 -440.16564142 517.54757978 -440.19995117 499.88818359 C-440.20277855 498.8791888 -440.20560593 497.87019402 -440.20851898 496.83062363 C-440.22333453 491.49905912 -440.23267679 486.16752047 -440.23706055 480.8359375 C-440.24145467 476.4940556 -440.25540729 472.15237134 -440.27807617 467.81054688 C-440.50961868 422.56372184 -440.50961868 422.56372184 -437.39491272 404.61061096 C-436.77368123 400.83762205 -436.31490593 397.04560662 -435.84233093 393.25158691 C-434.8534156 385.39127576 -433.60384036 377.71609331 -431.66870117 370.02490234 C-431.01514861 367.27010232 -430.58066034 364.5574537 -430.18432617 361.75537109 C-427.77922793 346.62329466 -422.72920108 331.74110751 -417.99682617 317.19287109 C-417.5972168 315.95408203 -417.19760742 314.71529297 -416.78588867 313.43896484 C-412.61440505 300.69866931 -408.10955008 288.19072693 -402.36010742 276.06787109 C-401.21206714 273.64678901 -400.12170687 271.2146694 -399.05932617 268.75537109 C-396.55411866 263.08242185 -393.72053259 257.56994941 -390.92456055 252.03662109 C-390.00908052 250.21722499 -389.10289516 248.39351714 -388.19995117 246.56787109 C-384.62307978 239.35082085 -380.91721489 232.22946624 -376.99682617 225.19287109 C-376.33682617 225.19287109 -375.67682617 225.19287109 -374.99682617 225.19287109 C-374.72870117 224.30599609 -374.46057617 223.41912109 -374.18432617 222.50537109 C-370.7120443 212.81953219 -363.32599604 204.328307 -357.3215332 196.02636719 C-355.07867831 192.92208406 -352.85010283 189.8076261 -350.62182617 186.69287109 C-350.21730225 186.12979248 -349.81277832 185.56671387 -349.39599609 184.98657227 C-347.48560702 182.31886884 -345.62527288 179.63188544 -343.81323242 176.89599609 C-342.32224969 174.67715728 -340.91232883 173.01715934 -338.99682617 171.19287109 C-338.66682617 170.53287109 -338.33682617 169.87287109 -337.99682617 169.19287109 C-337.33682617 169.19287109 -336.67682617 169.19287109 -335.99682617 169.19287109 C-335.72515625 168.60352783 -335.45348633 168.01418457 -335.17358398 167.40698242 C-334.01777785 165.23229242 -332.7921128 163.60964621 -331.16870117 161.76708984 C-330.61569336 161.13480469 -330.06268555 160.50251953 -329.49291992 159.85107422 C-328.91670898 159.20074219 -328.34049805 158.55041016 -327.74682617 157.88037109 C-326.61643826 156.59276831 -325.48622913 155.30500854 -324.35620117 154.01708984 C-323.79811768 153.38472412 -323.24003418 152.7523584 -322.66503906 152.10083008 C-320.54498883 149.67609825 -318.47198873 147.21303797 -316.40771484 144.74072266 C-314.89785931 143.08429696 -313.28975542 141.6773969 -311.55932617 140.25537109 C-308.1946937 137.47750676 -305.43247835 134.37131073 -302.60229492 131.06005859 C-294.35243236 121.46532792 -282.64066719 109.3649028 -270.99682617 104.19287109 C-270.99682617 103.53287109 -270.99682617 102.87287109 -270.99682617 102.19287109 C-270.39870117 101.92474609 -269.80057617 101.65662109 -269.18432617 101.38037109 C-267.02765283 100.34792566 -267.02765283 100.34792566 -265.75463867 98.92724609 C-263.25500155 96.46093747 -260.46995697 94.38332743 -257.68432617 92.25537109 C-257.1280957 91.82546875 -256.57186523 91.39556641 -255.9987793 90.95263672 C-252.42462791 88.21065096 -248.76405749 85.66702571 -244.99682617 83.19287109 C-243.34688625 82.05295897 -241.70085256 80.90736611 -240.05932617 79.75537109 C-239.19823242 79.15208984 -238.33713867 78.54880859 -237.44995117 77.92724609 C-235.38955878 76.47053555 -233.34755835 74.99272971 -231.30932617 73.50537109 C-226.18860973 69.85115091 -221.08347489 66.97432925 -214.99682617 65.19287109 C-214.99682617 64.53287109 -214.99682617 63.87287109 -214.99682617 63.19287109 C-214.48933838 62.92659912 -213.98185059 62.66032715 -213.45898438 62.38598633 C-211.07539242 61.13482268 -208.69229972 59.88271217 -206.30932617 58.63037109 C-205.44533203 58.17654053 -204.58133789 57.72270996 -203.69116211 57.25512695 C-198.68969143 54.62382554 -193.70902482 51.95991445 -188.74682617 49.25537109 C-184.5542334 46.98967702 -180.41272997 44.97621686 -175.99682617 43.19287109 C-171.62373532 41.30612623 -167.29573546 39.37086377 -163.05932617 37.19287109 C-158.48598428 34.88382568 -153.77864764 33.02380537 -148.99682617 31.19287109 C-148.38709961 30.95777832 -147.77737305 30.72268555 -147.14916992 30.48046875 C-145.10027038 29.69208348 -143.04896595 28.91028056 -140.99682617 28.13037109 C-140.35680664 27.88496582 -139.71678711 27.63956055 -139.05737305 27.38671875 C-134.6226062 25.71640924 -130.14460946 24.30857222 -125.59887695 22.97192383 C-122.98692635 22.18990709 -120.3960761 21.35901063 -117.80541992 20.50927734 C-107.38077241 17.0959994 -97.01585265 13.9711406 -86.28491211 11.6875 C-83.82095275 11.15485151 -81.36663069 10.58637133 -78.91088867 10.01708984 C-66.25194903 7.15786359 -53.53853421 5.16337938 -40.68432617 3.44287109 C-39.887323 3.33605011 -39.09031982 3.22922913 -38.26916504 3.11917114 C-35.95366442 2.81129948 -33.63758552 2.50843594 -31.32104492 2.20849609 C-30.30644447 2.07600716 -30.30644447 2.07600716 -29.27134705 1.94084167 C-19.50708121 0.70310322 -9.84395555 0.03966955 0 0 Z " fill="#F4BA5F" transform="translate(439.996826171875,-0.19287109375)"/>
<path d="M0 0 C13.98059344 -0.31672028 27.61961822 0.23475279 41.48266602 1.96565247 C42.15039032 2.04842438 42.81811462 2.13119629 43.506073 2.21647644 C51.64322831 3.25258368 59.37051303 4.8444752 67.23266602 7.15315247 C68.61098192 7.49804498 69.99108762 7.8359041 71.37329102 8.16487122 C82.95344664 11.13023495 94.34126441 15.24806603 105.23266602 20.15315247 C105.90845703 20.45028137 106.58424805 20.74741028 107.28051758 21.05354309 C141.70016936 36.26118009 174.3890995 61.07852892 197.23266602 91.15315247 C197.65999023 91.70938293 198.08731445 92.2656134 198.52758789 92.83869934 C205.45747959 101.8917919 211.6474225 111.21554517 217.23266602 121.15315247 C217.60633301 121.81540833 217.98 122.47766418 218.36499023 123.1599884 C229.83194721 143.66848203 237.99588974 165.2594825 243.23266602 188.15315247 C243.65032227 189.9378595 243.65032227 189.9378595 244.07641602 191.75862122 C254.01662322 237.33447124 251.70034945 290.35308189 244.23266602 336.15315247 C244.06814941 337.19600403 243.90363281 338.23885559 243.73413086 339.31330872 C241.57086608 352.68543395 238.11094112 365.44289712 233.85766602 378.27815247 C233.52060135 379.30336502 233.52060135 379.30336502 233.17672729 380.34928894 C222.35279009 412.99441749 204.19207354 443.77026717 182.23266602 470.15315247 C181.80791992 470.66813293 181.38317383 471.1831134 180.94555664 471.71369934 C170.93131407 483.81836208 160.28145227 495.27925416 147.91625977 505.02424622 C145.09557126 507.26191031 142.39230936 509.60944883 139.67016602 511.96565247 C123.0717214 525.79768965 103.71969887 536.94047991 84.2409668 546.19416809 C82.9222105 546.82388785 81.60786659 547.4629495 80.29858398 548.11213684 C43.19370203 566.48291947 1.03304881 573.43800131 -40.01733398 573.40315247 C-40.7804892 573.40255829 -41.54364441 573.40196411 -42.32992554 573.40135193 C-58.11997364 573.35423909 -73.59074694 572.7637891 -89.11743164 569.73396301 C-91.16093799 569.33703888 -93.20766845 568.96195965 -95.25561523 568.58869934 C-102.19886864 567.28760826 -108.73427051 565.62408111 -115.31762695 563.04695129 C-117.61466231 562.20885617 -119.79405131 561.65533029 -122.18920898 561.18440247 C-128.02876684 559.99265596 -133.47619325 557.81065168 -139.01733398 555.65315247 C-140.15686523 555.21027893 -141.29639648 554.7674054 -142.47045898 554.31111145 C-159.87308008 547.44644751 -176.06485221 539.31141054 -191.76733398 529.15315247 C-192.42958984 528.73033997 -193.0918457 528.30752747 -193.77416992 527.87190247 C-207.13588165 519.32468057 -219.32634115 509.75393722 -230.86108398 498.87190247 C-233.24113203 496.6454059 -235.65547083 494.50742129 -238.14233398 492.40315247 C-241.33692737 489.63361932 -244.07952447 486.64927662 -246.80639648 483.42268372 C-249.11120039 480.75517163 -251.53420692 478.21596536 -253.95483398 475.65315247 C-277.32203317 450.43320765 -296.75203362 417.31359675 -307.32983398 384.65315247 C-307.62051758 383.76756653 -307.91120117 382.88198059 -308.21069336 381.96955872 C-308.78821881 380.20985029 -309.36337177 378.44936127 -309.93603516 376.68806458 C-310.72382295 374.28583236 -311.53720932 371.89354713 -312.35327148 369.50080872 C-313.72022408 365.40764316 -314.82171895 361.28490883 -315.82983398 357.09065247 C-315.99032227 356.43516418 -316.15081055 355.7796759 -316.31616211 355.10432434 C-316.6412857 353.77640992 -316.96386394 352.4478698 -317.28393555 351.11872864 C-317.75015402 349.22300898 -318.25223287 347.3362191 -318.75561523 345.45002747 C-324.33919605 322.97141858 -324.33923029 300.10301031 -323.80834961 277.12251282 C-323.75123847 274.38032849 -323.73047465 271.637975 -323.70483398 268.89533997 C-322.99596583 229.31214212 -310.15249548 188.96882528 -291.76733398 154.15315247 C-291.19692383 153.06816467 -291.19692383 153.06816467 -290.61499023 151.96125793 C-281.93114054 135.56515321 -271.44701788 120.7354477 -260.17895508 106.02815247 C-259.21819589 104.75201436 -258.27902857 103.45939631 -257.35961914 102.15315247 C-254.24716032 97.78626252 -250.93052426 94.36373912 -246.82446289 90.92170715 C-243.32820699 87.91590633 -240.17351353 84.5750266 -236.95483398 81.27815247 C-230.84521274 75.10280597 -224.65936861 69.45316739 -217.76733398 64.15315247 C-216.82374023 63.39260559 -215.88014648 62.63205872 -214.90795898 61.84846497 C-191.62030624 43.34837535 -165.04332754 28.21973588 -136.90014648 18.59455872 C-133.26825512 17.34635697 -129.70636117 15.95989312 -126.14233398 14.52815247 C-114.99829708 10.21433173 -103.58411949 7.78556324 -91.83764648 5.86408997 C-88.99029995 5.39321184 -86.20032658 4.79906178 -83.39233398 4.13362122 C-60.60324688 -1.00181098 -35.53629333 0.56240543 -12.30493164 0.23664856 C-8.20262684 0.17827619 -4.10155197 0.09678197 0 0 Z " fill="#57B9DE" transform="translate(510.767333984375,117.84684753417969)"/>
<path d="M0 0 C1.14679733 -0.00817749 2.29359467 -0.01635498 3.47514343 -0.02478027 C7.2488049 -0.0494577 11.02242862 -0.06612364 14.79614258 -0.08056641 C16.75817847 -0.08855192 16.75817847 -0.08855192 18.75985146 -0.09669876 C24.28552774 -0.11831812 29.81120153 -0.13702616 35.33690929 -0.14832115 C42.42856177 -0.16293241 49.5198433 -0.18695087 56.61132812 -0.23925781 C93.18125538 -0.50312385 129.39106802 -0.56386493 165.11564636 8.24893188 C170.13248433 9.48574524 175.18651256 10.52908645 180.24536133 11.57958984 C183.00317383 12.19287109 183.00317383 12.19287109 186.00317383 13.19287109 C186.00317383 13.85287109 186.00317383 14.51287109 186.00317383 15.19287109 C187.20200195 15.32242187 187.20200195 15.32242187 188.42504883 15.45458984 C195.60492884 16.37314257 201.64350841 18.0119198 208.24145508 20.97021484 C210.62599751 22.02588922 212.95948859 22.90196505 215.44067383 23.69287109 C221.3916473 25.60491672 227.19152024 27.89699379 233.00317383 30.19287109 C234.45723633 30.76328125 234.45723633 30.76328125 235.94067383 31.34521484 C243.1206304 34.24256145 250.01053401 37.60315967 256.90161133 41.11865234 C259.47219726 42.42927722 262.05402866 43.70003112 264.66723633 44.92333984 C284.68522757 54.39209986 303.41675448 66.79222266 321.00317383 80.19287109 C321.62047363 80.65999512 322.23777344 81.12711914 322.8737793 81.60839844 C342.56623178 96.56999511 362.15279587 113.32745213 378.24145508 132.15380859 C380.19923122 134.41979339 382.22546331 136.61430603 384.25317383 138.81787109 C413.26836215 171.06786082 439.41795945 211.98954329 452.99536133 253.27490234 C454.01046611 256.21398479 455.22884721 258.94963618 456.56567383 261.75537109 C459.35747284 267.73034281 461.17232005 273.86873875 463.00317383 280.19287109 C463.3821582 281.41103516 463.76114258 282.62919922 464.15161133 283.88427734 C473.02329558 312.52765467 479.04216373 343.07317953 480.56567383 373.06787109 C480.60813232 373.89706055 480.65059082 374.72625 480.69433594 375.58056641 C481.23087932 387.44281727 481.09034208 399.32189559 481.00317383 411.19287109 C478.54346409 407.50330648 478.3558048 404.23775999 477.94067383 399.94287109 C477.85470947 399.13076172 477.76874512 398.31865234 477.68017578 397.48193359 C477.19249518 392.71806415 476.88915337 387.97843335 476.69067383 383.19287109 C475.99802877 371.70238441 473.38874808 360.42988893 471.00317383 349.19287109 C470.83946289 348.41766113 470.67575195 347.64245117 470.50708008 346.84375 C466.76239485 329.55771961 460.64917224 312.56171904 454.00317383 296.19287109 C453.47687571 294.86224333 452.95085261 293.53150677 452.42504883 292.20068359 C448.73538733 282.95806572 444.59991026 274.03736145 440.02685547 265.20019531 C439.29825763 263.77149714 438.58554123 262.33465204 437.88378906 260.89257812 C434.69580023 254.3589775 431.11111054 248.14107673 427.31567383 241.94287109 C426.70062988 240.93579102 426.08558594 239.92871094 425.4519043 238.89111328 C420.62617359 231.05982849 415.48975054 223.56937581 410.00317383 216.19287109 C409.34188477 215.25830078 408.6805957 214.32373047 407.99926758 213.36083984 C398.01469821 199.26141765 386.26549191 186.3384052 374.00317383 174.19287109 C371.48421218 171.68180588 368.97539666 169.16431513 366.49536133 166.61474609 C355.33780471 155.2240465 342.70905954 145.77672087 330.00317383 136.19287109 C329.03379883 135.45939453 328.06442383 134.72591797 327.06567383 133.97021484 C315.63623415 125.48524972 303.62270737 117.77623209 291.00317383 111.19287109 C289.8119033 110.53743445 288.62188977 109.87971013 287.43286133 109.22021484 C258.95027459 93.56359393 228.27985764 82.68880549 196.73754883 75.09521484 C194.47150997 74.5476678 192.20955437 73.9822567 189.95629883 73.38427734 C179.65667198 70.75487525 169.1102402 69.72600279 158.56762695 68.53417969 C156.88036878 68.30961886 155.19953922 68.02836498 153.53198242 67.68701172 C141.08882903 65.25556333 127.85729166 66.03853768 115.24389648 66.0625 C111.87845377 66.06787065 108.51314381 66.06252164 105.14770508 66.05615234 C102.97192354 66.05681306 100.79614208 66.05809409 98.62036133 66.06005859 C97.63252655 66.05803436 96.64469177 66.05601013 95.62692261 66.05392456 C83.64335463 65.9006295 83.64335463 65.9006295 72.00317383 68.19287109 C70.20388478 68.44081649 68.39943542 68.65217221 66.59301758 68.84130859 C64.98330078 69.01919922 64.98330078 69.01919922 63.34106445 69.20068359 C61.1019947 69.44246712 58.8624136 69.67956844 56.62231445 69.91162109 C50.58427173 70.58770926 45.0304182 71.61285188 39.25292969 73.49267578 C35.96909775 74.51470834 32.70832818 75.05961106 29.31567383 75.63037109 C9.27041518 79.22884307 -10.41984889 85.86625067 -28.99682617 94.19287109 C-29.84116211 94.56669922 -30.68549805 94.94052734 -31.55541992 95.32568359 C-34.37959404 96.59299501 -37.18739982 97.89319984 -39.99682617 99.19287109 C-41.2635985 99.76222595 -42.5305366 100.33121207 -43.79760742 100.89990234 C-54.96044224 105.96586799 -65.50306691 111.86743503 -75.99682617 118.19287109 C-76.70758301 118.61858398 -77.41833984 119.04429688 -78.15063477 119.48291016 C-88.18161164 125.51611939 -97.69487618 132.09068984 -106.99682617 139.19287109 C-107.6083252 139.65870605 -108.21982422 140.12454102 -108.84985352 140.60449219 C-115.63977799 145.79974517 -122.23530216 151.1222271 -128.52026367 156.92724609 C-130.55086751 158.78489629 -132.61085291 160.58528599 -134.69604492 162.38037109 C-139.46602575 166.54492272 -143.96026865 170.96432875 -148.43432617 175.44287109 C-149.27543945 176.28479004 -150.11655273 177.12670898 -150.9831543 177.99414062 C-155.94286798 183.00306548 -160.63639704 188.03303364 -164.96557617 193.59912109 C-166.92986359 196.10736502 -168.97817215 198.50893566 -171.06542969 200.9140625 C-176.06084065 206.68566644 -180.48027577 212.60950222 -184.75073242 218.94287109 C-187.06158334 222.2865719 -189.49365149 225.49311487 -191.99682617 228.69287109 C-200.06487121 239.05384115 -207.27152824 249.9125905 -213.99682617 261.19287109 C-214.64393555 262.25763672 -215.29104492 263.32240234 -215.95776367 264.41943359 C-221.81430991 274.30380214 -226.50202972 284.62874745 -230.99682617 295.19287109 C-231.31538574 295.93520996 -231.63394531 296.67754883 -231.9621582 297.44238281 C-243.04028849 323.54792875 -250.34208313 352.91228754 -251.54882812 381.2734375 C-251.59086774 382.23711054 -251.63290735 383.20078358 -251.67622089 384.19365883 C-252.09240131 394.43032127 -252.16079199 404.65999291 -252.16479492 414.90380859 C-252.16802334 416.89669822 -252.17138848 418.88958763 -252.17488098 420.88247681 C-252.1807983 425.01508127 -252.18272824 429.14766505 -252.18212891 433.28027344 C-252.18202679 438.5311392 -252.19576392 443.78187129 -252.21290112 449.03270531 C-252.22409648 453.1320556 -252.22604594 457.23137407 -252.22551918 461.33073807 C-252.22668468 463.26569715 -252.23102409 465.20065745 -252.23885155 467.13560104 C-252.28124807 478.67893168 -251.72094004 489.77126787 -249.99682617 501.19287109 C-249.68418688 503.51802469 -249.37388722 505.84349552 -249.06713867 508.16943359 C-246.98914637 523.49107023 -246.98914637 523.49107023 -243.18432617 538.44287109 C-241.86270953 542.61639733 -240.7211011 546.82241955 -239.57592773 551.04711914 C-235.33718723 566.5965185 -231.0347772 582.33027101 -223.35620117 596.58740234 C-221.99682617 599.19287109 -221.99682617 599.19287109 -220.69604492 602.28271484 C-210.7712345 625.82151314 -196.81756495 647.26477241 -180.99682617 667.19287109 C-180.27881836 668.11326172 -179.56081055 669.03365234 -178.82104492 669.98193359 C-176.9096509 672.41173883 -174.96143907 674.80592298 -172.99682617 677.19287109 C-172.21178711 678.16353516 -171.42674805 679.13419922 -170.61791992 680.13427734 C-164.14433851 687.99811027 -157.11403922 695.28895412 -149.93432617 702.50537109 C-149.02473145 703.42415039 -148.11513672 704.34292969 -147.17797852 705.28955078 C-141.09261761 711.34756421 -134.73786738 716.87772875 -127.99682617 722.19287109 C-127.3995874 722.66974365 -126.80234863 723.14661621 -126.18701172 723.63793945 C-111.86582803 735.01016758 -96.93794469 745.23311038 -80.99682617 754.19287109 C-80.02358398 754.74458984 -79.0503418 755.29630859 -78.04760742 755.86474609 C-66.36781342 762.35934007 -54.41463952 768.25108823 -41.99682617 773.19287109 C-40.77995117 773.69818359 -39.56307617 774.20349609 -38.30932617 774.72412109 C-31.7459556 777.43567429 -25.25023424 779.81388235 -18.34838867 781.54443359 C-15.99682617 782.19287109 -15.99682617 782.19287109 -12.37182617 783.75537109 C-9.76258374 784.86671509 -7.7538165 785.53630821 -5.03588867 786.09912109 C-1.44225653 786.86783386 2.12482711 787.70628446 5.69067383 788.59521484 C19.63171418 792.01358889 33.37759441 794.41057774 47.65863037 795.82730103 C51.26288059 796.22125793 54.84582568 796.7206056 58.43774414 797.21411133 C66.35712735 798.2391962 74.1799771 798.49930051 82.16723633 798.49365234 C83.57465738 798.49756552 84.98207731 798.50190523 86.38949585 798.50663757 C89.32228432 798.51402451 92.25495235 798.51386841 95.18774414 798.50854492 C98.12312305 798.50395323 101.05808369 798.51069409 103.9934082 798.52905273 C130.5448596 798.69347386 156.54650135 797.23568756 182.60180664 791.66381836 C185.19307303 791.15562876 187.78860385 790.78398533 190.40161133 790.40380859 C198.26684198 789.11544106 205.84752397 786.85522262 213.48461914 784.61694336 C215.99574681 783.88254319 218.51081013 783.16302906 221.02661133 782.44482422 C229.03719575 780.13196985 236.82873705 777.68756757 244.46630859 774.30029297 C247.25399575 773.0833794 250.08048557 772.03904715 252.94067383 771.00537109 C275.82740471 762.21534247 297.76725482 749.98853835 318.00317383 736.19287109 C318.65415039 735.75152832 319.30512695 735.31018555 319.97583008 734.85546875 C333.66936511 725.52274873 346.64170299 715.3753285 358.85083008 704.16162109 C360.84687482 702.33583788 362.88293048 700.57337045 364.94067383 698.81787109 C372.2109334 692.47479037 379.01607811 685.54218888 385.27270508 678.20068359 C387.2374488 675.92104867 389.27665465 673.71875666 391.31567383 671.50537109 C414.2079274 646.09108959 433.19360452 615.35573517 447.00317383 584.19287109 C448.02320773 582.04665763 449.04403173 579.90081949 450.06567383 577.75537109 C461.17507682 553.48469649 468.84845224 527.03194058 473.21411133 500.72802734 C473.75225373 497.53078702 474.37192249 494.3610943 475.04223633 491.18896484 C477.62462093 478.81716355 478.74719165 466.82559165 479.00317383 454.19287109 C479.66317383 453.86287109 480.32317383 453.53287109 481.00317383 453.19287109 C481.72816873 493.4703657 478.89344515 536.21542931 466.68041992 574.84838867 C466.00789432 577.17652976 465.55625554 579.46304105 465.13989258 581.84912109 C463.78027407 589.01471587 461.22315096 595.82734737 458.81567383 602.69287109 C458.31807607 604.12520227 457.82059965 605.5575756 457.32324219 606.98999023 C446.03299141 639.37574723 431.78656253 670.82930115 414.00317383 700.19287109 C413.57343262 700.91168457 413.14369141 701.63049805 412.70092773 702.37109375 C406.68696678 712.40667466 400.0454954 721.85652737 393.00317383 731.19287109 C392.45016602 731.93794922 391.8971582 732.68302734 391.32739258 733.45068359 C389.89856137 735.37457463 388.45257609 737.28443121 387.00317383 739.19287109 C386.29032227 740.14162109 385.5774707 741.09037109 384.84301758 742.06787109 C372.09256085 758.93579742 357.84368337 774.41460231 342.96109009 789.41018677 C341.96489837 790.41441664 340.97019175 791.42012242 339.97714233 792.42745972 C334.07855635 798.40190129 328.01664588 804.01091753 321.43457031 809.23510742 C319.08692097 811.12543778 316.85076169 813.09542883 314.62817383 815.13037109 C309.0149987 820.15945921 303.0366473 824.68737556 297.00317383 829.19287109 C296.35767578 829.67884766 295.71217773 830.16482422 295.04711914 830.66552734 C275.69999213 845.1781924 255.12265031 857.48376085 233.74194336 868.74560547 C231.15255832 870.11393088 228.57423535 871.50076973 225.99926758 872.89599609 C224.50070248 873.70353428 223.0020134 874.51084245 221.50317383 875.31787109 C220.8516333 875.67220215 220.20009277 876.0265332 219.52880859 876.39160156 C215.73074418 878.41637614 211.92216461 880.03197146 207.87426758 881.49121094 C205.24958666 882.47546628 202.76749318 883.70654832 200.25317383 884.94287109 C192.31586026 888.64269809 184.12002404 891.44858054 175.82739258 894.24121094 C172.8517717 895.24388817 169.88065383 896.25929386 166.90942383 897.27490234 C152.84630199 902.05353657 138.82936299 906.18228977 124.32348633 909.41552734 C122.07818783 909.94119135 119.84327109 910.51298282 117.62036133 911.12646484 C95.91529356 917.04812346 73.40136972 918.77078046 51.015625 919.95922852 C47.94272902 920.15872321 47.94272902 920.15872321 44.68481445 920.70922852 C40.44140935 921.26666787 36.32727479 921.33652404 32.05395508 921.32568359 C31.20125534 921.32664032 30.3485556 921.32759705 29.47001648 921.32858276 C27.66555711 921.3292609 25.86109526 921.32743222 24.05664062 921.32324219 C21.36883662 921.31797527 18.68120646 921.32315438 15.9934082 921.32958984 C-1.37533377 921.33867318 -18.53806497 920.68665091 -35.74682617 918.25537109 C-37.02041992 918.08585938 -38.29401367 917.91634766 -39.60620117 917.74169922 C-45.87286446 916.8832969 -51.88294351 915.78808009 -57.99682617 914.19287109 C-60.96645965 913.66726313 -63.94930316 913.24603786 -66.93432617 912.81787109 C-73.47766949 911.83152507 -79.93004155 910.64750168 -86.37182617 909.13037109 C-87.41391235 908.88697998 -87.41391235 908.88697998 -88.47705078 908.63867188 C-91.1867749 907.98069622 -93.77775225 907.28566819 -96.34838867 906.19677734 C-98.83477998 905.25429568 -101.06999921 904.75508482 -103.67651367 904.27099609 C-108.99510334 903.25961796 -114.00739974 901.69938944 -119.12182617 899.94287109 C-120.03125977 899.63494629 -120.94069336 899.32702148 -121.87768555 899.00976562 C-129.98503861 896.24330918 -138.00275599 893.26883165 -145.99682617 890.19287109 C-147.14795898 889.76103516 -148.2990918 889.32919922 -149.48510742 888.88427734 C-150.58209961 888.47048828 -151.6790918 888.05669922 -152.80932617 887.63037109 C-153.74389648 887.27845703 -154.6784668 886.92654297 -155.64135742 886.56396484 C-160.49198813 884.58192599 -165.23876091 882.38633395 -169.99682617 880.19287109 C-171.3021228 879.59454468 -171.3021228 879.59454468 -172.63378906 878.98413086 C-193.19064116 869.5090248 -213.23569793 858.89434728 -231.99682617 846.19287109 C-233.08205566 845.46849854 -233.08205566 845.46849854 -234.18920898 844.72949219 C-244.82107367 837.63212215 -255.06106954 830.23249097 -264.99682617 822.19287109 C-265.8862793 821.49677734 -266.77573242 820.80068359 -267.69213867 820.08349609 C-273.14929809 815.80672539 -278.30030424 811.26904461 -283.39916992 806.57177734 C-285.62965889 804.52911903 -287.89049161 802.53850392 -290.18432617 800.56787109 C-293.69261593 797.52687403 -296.93905556 794.27244606 -300.19213867 790.96240234 C-302.05158757 789.07275097 -302.05158757 789.07275097 -304.55932617 787.19287109 C-307.4441095 784.82586939 -309.70155379 782.15565814 -312.11791992 779.32177734 C-313.95595847 777.23917649 -315.87678964 775.31194722 -317.87182617 773.38037109 C-321.85901039 769.45488412 -325.34201839 765.21033696 -328.84057617 760.84912109 C-330.6915754 758.56890465 -332.59337139 756.37329367 -334.55932617 754.19287109 C-337.98042736 750.3303375 -340.94904922 746.19725883 -343.94604492 742.00146484 C-346.55663911 738.42619394 -349.32743587 734.99921591 -352.13745117 731.57958984 C-354.24638834 728.87252974 -356.1156706 726.06279344 -357.99682617 723.19287109 C-358.7490532 722.07845454 -359.50302081 720.96521127 -360.25854492 719.85302734 C-366.14861782 711.13848213 -371.72022403 702.29141255 -376.99682617 693.19287109 C-377.50681152 692.31501953 -378.01679688 691.43716797 -378.54223633 690.53271484 C-384.64455499 679.98859679 -390.59555499 669.47234431 -395.57885742 658.34912109 C-396.86901071 655.47737492 -398.24570309 652.67985385 -399.68432617 649.88037109 C-402.1010359 645.09418375 -404.08100197 640.19732442 -405.99682617 635.19287109 C-406.58270508 633.69433594 -406.58270508 633.69433594 -407.18041992 632.16552734 C-411.55850164 620.91344816 -415.6708533 609.61200508 -419.10229492 598.03271484 C-419.94799119 595.20982845 -419.94799119 595.20982845 -421.05151367 592.61865234 C-422.27173618 589.4874202 -422.773692 586.38484236 -423.33666992 583.08349609 C-423.87545268 580.72432897 -424.53361966 578.62904952 -425.34448242 576.36083984 C-427.68371707 569.48324817 -429.04160486 562.36010798 -430.49682617 555.25537109 C-430.65123169 554.50909454 -430.80563721 553.76281799 -430.96472168 552.993927 C-433.20154104 542.11314986 -434.97949023 531.27651285 -436.0222168 520.20678711 C-436.4187372 516.02727664 -436.82975446 511.95697028 -437.7277832 507.84985352 C-440.77895729 493.75422502 -440.45335196 479.52393884 -440.38793945 465.17602539 C-440.37095627 461.41010625 -440.38092608 457.64482847 -440.39827347 453.878932 C-440.46266561 437.35464099 -439.92643835 421.20106876 -437.39289856 404.8311615 C-436.81312011 400.96918079 -436.3295367 397.09612681 -435.84260559 393.22151184 C-434.8433695 385.37238688 -433.60156117 377.70703468 -431.66870117 370.02490234 C-431.01514861 367.27010232 -430.58066034 364.5574537 -430.18432617 361.75537109 C-427.77922793 346.62329466 -422.72920108 331.74110751 -417.99682617 317.19287109 C-417.5972168 315.95408203 -417.19760742 314.71529297 -416.78588867 313.43896484 C-412.61440505 300.69866931 -408.10955008 288.19072693 -402.36010742 276.06787109 C-401.21206714 273.64678901 -400.12170687 271.2146694 -399.05932617 268.75537109 C-396.55411866 263.08242185 -393.72053259 257.56994941 -390.92456055 252.03662109 C-390.00908052 250.21722499 -389.10289516 248.39351714 -388.19995117 246.56787109 C-384.62307978 239.35082085 -380.91721489 232.22946624 -376.99682617 225.19287109 C-376.33682617 225.19287109 -375.67682617 225.19287109 -374.99682617 225.19287109 C-374.72870117 224.30599609 -374.46057617 223.41912109 -374.18432617 222.50537109 C-370.7120443 212.81953219 -363.32599604 204.328307 -357.3215332 196.02636719 C-355.07867831 192.92208406 -352.85010283 189.8076261 -350.62182617 186.69287109 C-350.21730225 186.12979248 -349.81277832 185.56671387 -349.39599609 184.98657227 C-347.48560702 182.31886884 -345.62527288 179.63188544 -343.81323242 176.89599609 C-342.32224969 174.67715728 -340.91232883 173.01715934 -338.99682617 171.19287109 C-338.66682617 170.53287109 -338.33682617 169.87287109 -337.99682617 169.19287109 C-337.33682617 169.19287109 -336.67682617 169.19287109 -335.99682617 169.19287109 C-335.72515625 168.60352783 -335.45348633 168.01418457 -335.17358398 167.40698242 C-334.01777785 165.23229242 -332.7921128 163.60964621 -331.16870117 161.76708984 C-330.61569336 161.13480469 -330.06268555 160.50251953 -329.49291992 159.85107422 C-328.91670898 159.20074219 -328.34049805 158.55041016 -327.74682617 157.88037109 C-326.61643826 156.59276831 -325.48622913 155.30500854 -324.35620117 154.01708984 C-323.79811768 153.38472412 -323.24003418 152.7523584 -322.66503906 152.10083008 C-320.54498883 149.67609825 -318.47198873 147.21303797 -316.40771484 144.74072266 C-314.89785931 143.08429696 -313.28975542 141.6773969 -311.55932617 140.25537109 C-308.1946937 137.47750676 -305.43247835 134.37131073 -302.60229492 131.06005859 C-294.35243236 121.46532792 -282.64066719 109.3649028 -270.99682617 104.19287109 C-270.99682617 103.53287109 -270.99682617 102.87287109 -270.99682617 102.19287109 C-270.39870117 101.92474609 -269.80057617 101.65662109 -269.18432617 101.38037109 C-267.02765283 100.34792566 -267.02765283 100.34792566 -265.75463867 98.92724609 C-263.25500155 96.46093747 -260.46995697 94.38332743 -257.68432617 92.25537109 C-257.1280957 91.82546875 -256.57186523 91.39556641 -255.9987793 90.95263672 C-252.42462791 88.21065096 -248.76405749 85.66702571 -244.99682617 83.19287109 C-243.34688625 82.05295897 -241.70085256 80.90736611 -240.05932617 79.75537109 C-239.19823242 79.15208984 -238.33713867 78.54880859 -237.44995117 77.92724609 C-235.38955878 76.47053555 -233.34755835 74.99272971 -231.30932617 73.50537109 C-226.18860973 69.85115091 -221.08347489 66.97432925 -214.99682617 65.19287109 C-214.99682617 64.53287109 -214.99682617 63.87287109 -214.99682617 63.19287109 C-214.48933838 62.92659912 -213.98185059 62.66032715 -213.45898438 62.38598633 C-211.07539242 61.13482268 -208.69229972 59.88271217 -206.30932617 58.63037109 C-205.44533203 58.17654053 -204.58133789 57.72270996 -203.69116211 57.25512695 C-198.68969143 54.62382554 -193.70902482 51.95991445 -188.74682617 49.25537109 C-184.5542334 46.98967702 -180.41272997 44.97621686 -175.99682617 43.19287109 C-171.62373532 41.30612623 -167.29573546 39.37086377 -163.05932617 37.19287109 C-158.48598428 34.88382568 -153.77864764 33.02380537 -148.99682617 31.19287109 C-148.38709961 30.95777832 -147.77737305 30.72268555 -147.14916992 30.48046875 C-145.10027038 29.69208348 -143.04896595 28.91028056 -140.99682617 28.13037109 C-140.35680664 27.88496582 -139.71678711 27.63956055 -139.05737305 27.38671875 C-134.6226062 25.71640924 -130.14460946 24.30857222 -125.59887695 22.97192383 C-122.98692635 22.18990709 -120.3960761 21.35901063 -117.80541992 20.50927734 C-107.38077241 17.0959994 -97.01585265 13.9711406 -86.28491211 11.6875 C-83.82095275 11.15485151 -81.36663069 10.58637133 -78.91088867 10.01708984 C-66.25194903 7.15786359 -53.53853421 5.16337938 -40.68432617 3.44287109 C-39.887323 3.33605011 -39.09031982 3.22922913 -38.26916504 3.11917114 C-35.95366442 2.81129948 -33.63758552 2.50843594 -31.32104492 2.20849609 C-30.30644447 2.07600716 -30.30644447 2.07600716 -29.27134705 1.94084167 C-19.50708121 0.70310322 -9.84395555 0.03966955 0 0 Z " fill="#E76F32" transform="translate(439.996826171875,-0.19287109375)"/>
<path d="M0 0 C16.17989204 0.37046938 32.00038715 1.55465864 48 4 C49.24910156 4.18820313 50.49820312 4.37640625 51.78515625 4.5703125 C59.88331183 5.86028419 67.75304372 7.40190485 75.46875 10.21875 C77.66609851 10.89694399 79.79468176 11.38944364 82.04296875 11.85546875 C87.76936191 13.09777695 93.26617336 14.93880009 98.8125 16.8125 C99.87694336 17.16997314 100.94138672 17.52744629 102.03808594 17.89575195 C109.17481602 20.31788505 116.10584427 22.95472876 123 26 C123.88171875 26.350625 124.7634375 26.70125 125.671875 27.0625 C161.86451579 41.45957258 199.1405324 64.92719385 226.1875 93.15234375 C227.76684653 94.76232416 229.35780285 96.168071 231.125 97.5625 C234.17620324 100.14938971 236.6367986 102.93413205 239.22265625 105.97265625 C240.86880511 107.85035132 242.57735116 109.58127698 244.375 111.3125 C248.98831735 115.87489773 252.97369592 120.92304914 257 126 C257.53608887 126.6703125 258.07217773 127.340625 258.62451172 128.03125 C266.34304838 137.69830179 273.57095528 147.43104012 280 158 C280.70751815 159.13071882 281.41586191 160.26092143 282.125 161.390625 C289.06579724 172.57163537 295.06470492 184.26235684 301 196 C301.33161133 196.65242676 301.66322266 197.30485352 302.00488281 197.97705078 C306.28964059 206.4946748 309.33584421 215.39589561 312.40234375 224.40234375 C313.54619131 227.74430397 314.78749215 231.00527592 316.1875 234.25 C318.66945846 240.27006945 320.00864757 246.62355643 321.5 252.94287109 C321.96890843 254.87208125 322.4829127 256.79017245 323 258.70703125 C326.00716374 269.92516162 327.86885034 281.29412527 329.52514648 292.78417969 C329.83892837 294.90918482 330.18173561 297.03012827 330.55493164 299.14550781 C332.47550396 311.02495025 332.26710205 322.91243228 332.20581055 334.91601562 C332.18750608 338.62376787 332.18530185 342.33126963 332.18554688 346.0390625 C332.18063143 348.43489796 332.17480299 350.83073175 332.16796875 353.2265625 C332.16685593 354.31546783 332.1657431 355.40437317 332.16459656 356.52627563 C332.10457954 366.42032027 331.64272385 376.29339813 329.9140625 386.05078125 C329.70716797 387.23591309 329.50027344 388.42104492 329.28710938 389.64208984 C329.06861328 390.8533252 328.85011719 392.06456055 328.625 393.3125 C328.39876953 394.58561035 328.17253906 395.8587207 327.93945312 397.17041016 C327.49387321 399.67121149 327.04573834 402.1715593 326.59472656 404.67138672 C326.10450092 407.4151209 325.63375139 410.16028368 325.1796875 412.91015625 C323.88391575 420.59197165 321.9075277 427.79343178 319.3203125 435.14453125 C317.8792894 439.2585567 316.69135441 443.43323216 315.5 447.625 C312.60152649 457.66881125 309.09027434 467.31847222 304.2109375 476.5859375 C302.99483972 479.01028728 301.94210564 481.48165962 300.88427734 483.97802734 C287.55816712 514.4492711 268.56307504 540.9122698 247 566 C246.32839844 566.78632812 245.65679688 567.57265625 244.96484375 568.3828125 C233.72398262 581.21035582 221.55168337 593.62386035 208 604 C207.03320312 604.79535156 206.06640625 605.59070313 205.0703125 606.41015625 C183.56837397 624.03447944 159.38229416 638.53021373 134.1171875 650.03173828 C132.1953209 650.91067312 130.2834192 651.80716791 128.375 652.71484375 C113.30516734 659.83316615 97.8472985 664.79362987 81.74609375 668.99609375 C78.18212747 669.95119212 74.65760952 670.99826597 71.125 672.0625 C66.17556942 673.47867187 61.23356223 674.60599522 56.1640625 675.484375 C55.42879333 675.61221878 54.69352417 675.74006256 53.93597412 675.8717804 C4.14820934 684.31177757 -46.10986785 683.04108928 -95 670 C-96.54109103 669.60969921 -98.08271864 669.22150784 -99.625 668.8359375 C-105.19065409 667.42567458 -110.66944988 665.91783486 -116 663.76953125 C-118.52960296 662.79622698 -121.10346692 662.00510422 -123.6875 661.1875 C-129.27257886 659.35169658 -134.50735714 657.02144405 -139.796875 654.46484375 C-142.16328174 653.38264555 -144.45694215 652.44250567 -146.89453125 651.55859375 C-151.06261319 650.02698509 -154.98383818 648.13876285 -158.9375 646.125 C-159.58912109 645.79886719 -160.24074219 645.47273437 -160.91210938 645.13671875 C-177.87255793 636.58159553 -194.26130623 626.80532331 -209.34765625 615.25537109 C-210.90394584 614.07297732 -212.48260541 612.92019428 -214.0625 611.76953125 C-226.98248188 602.33725725 -238.54909968 591.63840413 -249.875 580.375 C-250.60428207 579.65361847 -250.60428207 579.65361847 -251.34829712 578.91766357 C-258.02898812 572.2930274 -264.15267259 565.37233828 -270 558 C-271.00126419 556.78037825 -272.00481242 555.56262408 -273.01171875 554.34765625 C-286.2979466 538.12109351 -297.58714624 521.01416612 -307.59277344 502.58837891 C-308.85165001 500.27286721 -310.12863685 497.96880461 -311.4140625 495.66796875 C-315.09169528 489.02173479 -318.23846187 482.35505074 -320.796875 475.1953125 C-321.74847748 472.66800461 -322.77570276 470.26354063 -323.8984375 467.8125 C-326.23483781 462.60998479 -328.08220856 457.28543616 -329.875 451.875 C-330.21869629 450.8432666 -330.56239258 449.8115332 -330.91650391 448.74853516 C-334.1859828 438.75197069 -336.85917945 428.62692875 -339.34912109 418.41162109 C-339.99338023 415.90722136 -339.99338023 415.90722136 -340.99829102 413.15161133 C-342.0935239 409.70575189 -342.69857828 406.37313568 -343.25390625 402.80078125 C-343.35968491 402.12508591 -343.46546356 401.44939056 -343.57444763 400.7532196 C-343.7961853 399.32911131 -344.0153883 397.90460627 -344.23217773 396.47973633 C-344.55906576 394.33503196 -344.89507809 392.19190988 -345.23242188 390.04882812 C-347.10774797 377.93896058 -348.15290132 366.16405734 -348.09765625 353.89453125 C-348.0962413 352.6893132 -348.09482635 351.48409515 -348.09336853 350.24235535 C-348.08781771 346.43237719 -348.07527459 342.62246008 -348.0625 338.8125 C-348.05747864 336.21289148 -348.05291685 333.61328203 -348.04882812 331.01367188 C-348.03786444 324.67576079 -348.02117606 318.33788476 -348 312 C-347.67 312 -347.34 312 -347 312 C-346.88930176 312.83660156 -346.77860352 313.67320312 -346.66455078 314.53515625 C-346.24697209 317.67416608 -345.8252718 320.81258835 -345.40087891 323.95068359 C-345.21891707 325.30235408 -345.03854296 326.65423938 -344.85986328 328.00634766 C-343.91752658 335.12914969 -342.92851808 342.07555714 -341 349 C-340.66116119 350.33227133 -340.32662956 351.66564446 -339.99609375 353 C-339.83093262 353.66 -339.66577148 354.32 -339.49560547 355 C-339.00047711 356.99807465 -338.51646091 358.99855443 -338.03515625 361 C-337.87466797 361.66 -337.71417969 362.32 -337.54882812 363 C-337.22482621 364.33244161 -336.90450634 365.66578399 -336.58789062 367 C-335.579236 371.11498937 -334.31070638 375.02398727 -332.77856445 378.97314453 C-331.98828853 381.03048875 -331.25456121 383.10048293 -330.53515625 385.18359375 C-330.29216797 385.88419922 -330.04917969 386.58480469 -329.79882812 387.30664062 C-329.30956459 388.72251998 -328.82256895 390.13918513 -328.33789062 391.55664062 C-321.52813912 411.1234464 -310.77484745 430.00382421 -299 447 C-298.60361328 447.5760498 -298.20722656 448.15209961 -297.79882812 448.74560547 C-290.01726226 460.0143083 -281.54579978 470.52037333 -272.16064453 480.49829102 C-269.96614738 482.83539749 -267.8557173 485.18140654 -265.859375 487.69140625 C-264.19622309 489.75637007 -262.58898798 491.3699989 -260.5625 493.0625 C-257.9890456 495.25399457 -255.46880852 497.48041225 -253.01171875 499.80078125 C-241.59903362 510.57817471 -229.15842344 519.48906502 -216 528 C-214.42798828 529.01900391 -214.42798828 529.01900391 -212.82421875 530.05859375 C-191.21847248 543.70288333 -167.00863027 555.51664488 -142.04370117 561.45996094 C-139.96615197 562.00894419 -137.98905078 562.69918864 -135.96875 563.4296875 C-129.97952172 565.46797366 -123.78978801 566.58001187 -117.58300781 567.73486328 C-115.52931773 568.11950894 -113.47968763 568.52199335 -111.4296875 568.92578125 C-101.62899845 570.80385647 -91.96792032 571.68318792 -82 572 C-80.94975647 572.03486511 -80.94975647 572.03486511 -79.8782959 572.07043457 C-41.61949117 573.24820432 -5.76322135 568.98348243 30.61279297 556.79931641 C32.64549045 556.1187016 34.68354755 555.45412781 36.72265625 554.79296875 C70.23872444 543.48778723 101.78876268 523.95394802 127.7734375 500.04296875 C129.81427926 498.17040692 131.89463697 496.36170466 134 494.5625 C142.54909339 487.07989311 149.93042119 478.87114107 157 470 C158.54064812 468.14498692 160.08231045 466.2908157 161.625 464.4375 C175.7300244 447.14118337 187.20145009 427.29202368 196.8125 407.1875 C197.17351807 406.43557373 197.53453613 405.68364746 197.90649414 404.90893555 C200.21667632 399.9809406 202.16576511 394.98400568 203.98413086 389.85522461 C205.00453864 386.98724361 206.07333565 384.14084236 207.1484375 381.29296875 C228.23095906 324.14725339 231.89836155 247.53670227 218 188 C217.71253906 186.71996094 217.42507813 185.43992187 217.12890625 184.12109375 C207.29099036 141.62755996 185.05892263 103.29422082 155 72 C154.1440625 71.1028125 153.288125 70.205625 152.40625 69.28125 C138.83038078 55.36168788 122.75921869 43.78936865 106 34 C105.25878906 33.56429687 104.51757812 33.12859375 103.75390625 32.6796875 C84.10416269 21.46187549 63.02314284 12.22699773 40.796875 7.640625 C38 7 38 7 35.29931641 6.02685547 C31.65375341 4.89223671 28.20421611 4.38450593 24.4140625 3.9296875 C23.71227875 3.84373322 23.010495 3.75777893 22.28744507 3.66921997 C20.06729017 3.39864294 17.8462183 3.13668834 15.625 2.875 C14.11060797 2.69197722 12.59628415 2.50838906 11.08203125 2.32421875 C7.3887869 1.87627281 3.69467016 1.43604851 0 1 C0 0.67 0 0.34 0 0 Z " fill="#6DB54C" transform="translate(535,118)"/>
<path d="M0 0 C0.92733948 -0.00635468 1.85467896 -0.01270935 2.81011963 -0.01925659 C13.14051288 -0.06322203 22.88100399 0.36397021 32.96020508 2.72338867 C35.91319315 3.40313134 38.80509962 3.83647938 41.8125 4.1875 C82.2425695 10.66069973 122.18451907 41.03208437 145.75 73.3125 C151.07485347 80.75299369 155.79520431 88.34334051 160.0625 96.4375 C160.60390625 97.45199219 161.1453125 98.46648437 161.703125 99.51171875 C180.08264957 135.0176185 184.2538052 175.39726522 177.0625 214.4375 C176.9085376 215.27949951 176.7545752 216.12149902 176.59594727 216.98901367 C175.06161031 225.02728967 172.64664954 232.68308774 170.0625 240.4375 C169.55976562 241.99404297 169.55976562 241.99404297 169.046875 243.58203125 C163.69101894 258.83023339 155.19975619 273.86730232 145.0625 286.4375 C144.41925781 287.26894531 143.77601563 288.10039063 143.11328125 288.95703125 C115.71962158 323.99292997 80.09229762 345.80437853 37.0625 356.1875 C36.19036865 356.39834229 35.3182373 356.60918457 34.41967773 356.82641602 C33.57993408 357.02291748 32.74019043 357.21941895 31.875 357.421875 C30.77091797 357.68049316 30.77091797 357.68049316 29.64453125 357.94433594 C23.24276806 359.16706302 16.94565167 359.6177269 10.4453125 359.7109375 C9.2360762 359.72993355 9.2360762 359.72993355 8.00241089 359.74931335 C-26.53347375 360.18594446 -56.33555097 354.15140234 -86.9375 337.4375 C-87.9996875 336.86386719 -89.061875 336.29023437 -90.15625 335.69921875 C-109.84453053 324.6626182 -127.01009881 309.07539081 -140.9375 291.4375 C-141.44925781 290.80457031 -141.96101563 290.17164063 -142.48828125 289.51953125 C-168.02997303 256.92689357 -178.98657829 218.58062244 -179.1875 177.75 C-179.19303894 177.01286774 -179.19857788 176.27573547 -179.20428467 175.51626587 C-179.27922681 161.84921496 -178.42247832 148.29647831 -174.75 135.0625 C-174.53641846 134.27705811 -174.32283691 133.49161621 -174.1027832 132.68237305 C-161.33842785 87.38497446 -131.36495511 47.49387967 -90.44458008 23.9699707 C-75.58091043 15.68599737 -60.3376342 9.03727552 -43.9375 4.4375 C-43.15294434 4.2115918 -42.36838867 3.98568359 -41.56005859 3.75292969 C-27.92064612 0.03075089 -14.03451905 0.04972779 0 0 Z " fill="#231F20" transform="translate(517.9375,237.5625)"/>
<path d="M0 0 C0 0.33 0 0.66 0 1 C-0.5576001 1.07516846 -1.1152002 1.15033691 -1.68969727 1.2277832 C-17.91247856 3.43248168 -33.56610565 5.7827931 -49.05664062 11.31738281 C-51.02410301 12.00846633 -53.00125762 12.66002981 -54.984375 13.3046875 C-74.06415566 19.60328652 -91.38234252 28.77412033 -108 40 C-108.64549805 40.433125 -109.29099609 40.86625 -109.95605469 41.3125 C-118.59271355 47.15239611 -126.53731092 53.65850252 -134.34814453 60.55517578 C-136.11701464 62.10234889 -137.91138725 63.61683734 -139.70703125 65.1328125 C-142.08471181 67.1679096 -144.24501879 69.21241272 -146.25 71.625 C-148.76065276 74.58700606 -151.34557423 77.4526414 -154.00512695 80.28198242 C-159.53388261 86.18956197 -164.43026377 92.30766077 -169 99 C-169.40105957 99.58185059 -169.80211914 100.16370117 -170.21533203 100.76318359 C-175.61416055 108.61286341 -180.67052653 116.49972487 -185 125 C-185.45971191 125.89090332 -185.45971191 125.89090332 -185.92871094 126.79980469 C-188.35183089 131.5018394 -190.70028175 136.23646902 -193 141 C-193.515625 142.06347656 -194.03125 143.12695312 -194.5625 144.22265625 C-219.04588885 197.91313126 -220.02883342 263.16406654 -200.16088867 318.29418945 C-192.02600186 339.86275944 -181.5637107 360.34705782 -168 379 C-167.24074219 380.04800781 -166.48148438 381.09601563 -165.69921875 382.17578125 C-157.6826654 392.92137403 -148.48578121 402.54642858 -139 412 C-138.4121875 412.62261719 -137.824375 413.24523437 -137.21875 413.88671875 C-113.39186427 438.85079676 -76.5851013 459.53956603 -43.08203125 467.45361328 C-40.8712251 468.03379435 -38.75464612 468.76532161 -36.6015625 469.53125 C-31.91263211 471.12970336 -27.27619894 471.86884402 -22.375 472.5 C-16.51467682 473.27690045 -10.79602264 474.26269972 -5.0234375 475.55078125 C3.89300386 477.36412368 12.67519387 477.5680523 21.75 477.6875 C23.48072536 477.71838423 25.21143836 477.74996883 26.94213867 477.78222656 C30.37785952 477.8430635 33.81351932 477.89427534 37.24951172 477.93701172 C40.17079493 477.97343014 43.09139072 478.01886532 46.01220703 478.08251953 C86.1549632 478.94423119 124.01740239 471.26950771 159 451 C159.75861328 450.56961426 160.51722656 450.13922852 161.29882812 449.69580078 C172.77576798 443.15452716 183.02285226 435.64439858 193 427 C194.43666016 425.75863281 194.43666016 425.75863281 195.90234375 424.4921875 C198.3067998 422.36559617 200.66345337 420.20079657 203 418 C203.7321875 417.32066406 204.464375 416.64132812 205.21875 415.94140625 C222.17845702 399.66844793 234.88882233 378.946913 245.05639648 357.93139648 C246.05544266 355.88651828 247.08362772 353.85774193 248.11328125 351.828125 C256.93557078 334.19851347 260.40199597 314.19321119 264 295 C264.33 295 264.66 295 265 295 C265.23500999 303.56190723 264.59084378 311.72528329 263.3125 320.1875 C263.12953369 321.40800049 262.94656738 322.62850098 262.75805664 323.88598633 C262.18929475 327.5936224 261.59870394 331.2970916 261 335 C260.8340332 336.05445313 260.66806641 337.10890625 260.49707031 338.1953125 C258.33521047 351.5548296 254.87428619 364.30178212 250.625 377.125 C250.28793533 378.15021255 250.28793533 378.15021255 249.94406128 379.19613647 C239.12012407 411.84126502 220.95940752 442.6171147 199 469 C198.57525391 469.51498047 198.15050781 470.02996094 197.71289062 470.56054688 C187.69864806 482.66520961 177.04878625 494.12610169 164.68359375 503.87109375 C161.86290525 506.10875785 159.15964334 508.45629637 156.4375 510.8125 C139.83905538 524.64453718 120.48703285 535.78732744 101.00830078 545.04101562 C99.68954448 545.67073538 98.37520058 546.30979704 97.06591797 546.95898438 C59.96103602 565.329767 17.8003828 572.28484885 -23.25 572.25 C-24.01315521 572.24940582 -24.77631042 572.24881165 -25.56259155 572.24819946 C-41.35263965 572.20108663 -56.82341296 571.61063663 -72.35009766 568.58081055 C-74.393604 568.18388642 -76.44033446 567.80880718 -78.48828125 567.43554688 C-85.43153465 566.1344558 -91.96693652 564.47092864 -98.55029297 561.89379883 C-100.84732833 561.05570371 -103.02671732 560.50217782 -105.421875 560.03125 C-111.26143286 558.8395035 -116.70885927 556.65749921 -122.25 554.5 C-123.38953125 554.05712646 -124.5290625 553.61425293 -125.703125 553.15795898 C-143.10574609 546.29329504 -159.29751823 538.15825807 -175 528 C-175.66225586 527.5771875 -176.32451172 527.154375 -177.00683594 526.71875 C-190.36854766 518.17152811 -202.55900716 508.60078476 -214.09375 497.71875 C-216.47379805 495.49225344 -218.88813685 493.35426882 -221.375 491.25 C-224.56959339 488.48046685 -227.31219049 485.49612415 -230.0390625 482.26953125 C-232.3438664 479.60201916 -234.76687294 477.06281289 -237.1875 474.5 C-260.55469919 449.28005518 -279.98469963 416.16044428 -290.5625 383.5 C-290.85318359 382.61441406 -291.14386719 381.72882813 -291.44335938 380.81640625 C-292.02088483 379.05669782 -292.59603779 377.29620881 -293.16870117 375.53491211 C-293.95648897 373.13267989 -294.76987534 370.74039467 -295.5859375 368.34765625 C-296.95289009 364.25449069 -298.05438497 360.13175636 -299.0625 355.9375 C-299.22298828 355.28201172 -299.38347656 354.62652344 -299.54882812 353.95117188 C-299.87395171 352.62325745 -300.19652996 351.29471733 -300.51660156 349.96557617 C-300.98282003 348.06985652 -301.48489888 346.18306663 -301.98828125 344.296875 C-307.57186207 321.81826612 -307.57189631 298.94985785 -307.04101562 275.96936035 C-306.98390449 273.22717602 -306.96314066 270.48482254 -306.9375 267.7421875 C-306.22863184 228.15898965 -293.38516149 187.81567281 -275 153 C-274.42958984 151.91501221 -274.42958984 151.91501221 -273.84765625 150.80810547 C-265.16380656 134.41200074 -254.67968389 119.58229524 -243.41162109 104.875 C-242.45086191 103.59886189 -241.51169458 102.30624385 -240.59228516 101 C-237.47982633 96.63311005 -234.16319027 93.21058666 -230.05712891 89.76855469 C-226.560873 86.76275386 -223.40617955 83.42187413 -220.1875 80.125 C-214.07787875 73.9496535 -207.89203462 68.30001493 -201 63 C-200.05640625 62.23945313 -199.1128125 61.47890625 -198.140625 60.6953125 C-174.85297225 42.19522288 -148.27599355 27.06658341 -120.1328125 17.44140625 C-116.50092114 16.19320451 -112.93902719 14.80674065 -109.375 13.375 C-98.2309631 9.06117926 -86.8167855 6.63241078 -75.0703125 4.7109375 C-72.23527266 4.24231886 -69.45917852 3.64973145 -66.6640625 2.984375 C-61.55584891 1.83189223 -56.46469744 1.2960491 -51.25 0.875 C-49.69261108 0.74762451 -49.69261108 0.74762451 -48.10375977 0.61767578 C-32.10471838 -0.5253593 -16.02828479 -0.16958387 0 0 Z " fill="#AEDAE6" transform="translate(494,119)"/>
<path d="M0 0 C1.20736313 -0.01102249 2.41472626 -0.02204498 3.65867615 -0.03340149 C7.55903427 -0.06017155 11.45892908 -0.06652578 15.359375 -0.06640625 C16.02359592 -0.06731766 16.68781685 -0.06822906 17.37216568 -0.06916809 C34.94013946 -0.09076701 52.3558857 0.30695008 69.796875 2.62109375 C70.57575073 2.72342316 71.35462646 2.82575256 72.15710449 2.93118286 C81.64985789 4.21925997 90.93255949 6.13180477 100.23022461 8.42797852 C105.24974051 9.64834417 110.29375138 10.70752458 115.3515625 11.7578125 C118.109375 12.37109375 118.109375 12.37109375 121.109375 13.37109375 C121.109375 14.03109375 121.109375 14.69109375 121.109375 15.37109375 C121.90859375 15.45746094 122.7078125 15.54382812 123.53125 15.6328125 C130.71113001 16.55136522 136.74970958 18.19014246 143.34765625 21.1484375 C145.73219868 22.20411187 148.06568976 23.08018771 150.546875 23.87109375 C156.49784847 25.78313938 162.29772141 28.07521645 168.109375 30.37109375 C169.5634375 30.94150391 169.5634375 30.94150391 171.046875 31.5234375 C178.22683157 34.42078411 185.11673519 37.78138232 192.0078125 41.296875 C194.57839843 42.60749988 197.16022983 43.87825378 199.7734375 45.1015625 C219.79142874 54.57032251 238.52295565 66.97044531 256.109375 80.37109375 C256.7266748 80.83821777 257.34397461 81.3053418 257.97998047 81.78662109 C277.67243295 96.74821777 297.25899704 113.50567479 313.34765625 132.33203125 C315.30543239 134.59801605 317.33166448 136.79252869 319.359375 138.99609375 C348.37456333 171.24608348 374.52416062 212.16776595 388.1015625 253.453125 C389.11666728 256.39220745 390.33504838 259.12785883 391.671875 261.93359375 C394.46367401 267.90856546 396.27852122 274.04696141 398.109375 280.37109375 C398.48835937 281.58925781 398.86734375 282.80742187 399.2578125 284.0625 C408.12949675 312.70587733 414.1483649 343.25140219 415.671875 373.24609375 C415.7143335 374.0752832 415.75679199 374.90447266 415.80053711 375.75878906 C416.33708049 387.62103993 416.19654326 399.50011825 416.109375 411.37109375 C413.64966526 407.68152914 413.46200598 404.41598265 413.046875 400.12109375 C412.96091064 399.30898438 412.87494629 398.496875 412.78637695 397.66015625 C412.29869635 392.8962868 411.99535454 388.15665601 411.796875 383.37109375 C411.10422995 371.88060706 408.49494925 360.60811159 406.109375 349.37109375 C405.94566406 348.59588379 405.78195312 347.82067383 405.61328125 347.02197266 C401.86859602 329.73594227 395.75537342 312.7399417 389.109375 296.37109375 C388.58307688 295.04046599 388.05705378 293.70972943 387.53125 292.37890625 C383.8415885 283.13628837 379.70611144 274.21558411 375.13305664 265.37841797 C374.4044588 263.9497198 373.6917424 262.51287469 372.98999023 261.07080078 C369.8020014 254.53720016 366.21731172 248.31929938 362.421875 242.12109375 C361.80683105 241.11401367 361.19178711 240.10693359 360.55810547 239.06933594 C355.73237476 231.23805115 350.59595171 223.74759847 345.109375 216.37109375 C344.44808594 215.43652344 343.78679688 214.50195312 343.10546875 213.5390625 C333.12089938 199.43964031 321.37169309 186.51662785 309.109375 174.37109375 C306.59041336 171.86002854 304.08159783 169.34253779 301.6015625 166.79296875 C290.44400588 155.40226916 277.81526071 145.95494353 265.109375 136.37109375 C264.14 135.63761719 263.170625 134.90414062 262.171875 134.1484375 C250.74243532 125.66347237 238.72890855 117.95445475 226.109375 111.37109375 C224.91810447 110.71565711 223.72809094 110.05793278 222.5390625 109.3984375 C194.05647576 93.74181658 163.38605881 82.86702814 131.84375 75.2734375 C129.57771115 74.72589045 127.31575554 74.16047936 125.0625 73.5625 C114.76287315 70.93309791 104.21644137 69.90422544 93.67382812 68.71240234 C91.98656995 68.48784152 90.30574039 68.20658763 88.63818359 67.86523438 C76.1950302 65.43378598 62.96349283 66.21676034 50.35009766 66.24072266 C46.98465494 66.2460933 43.61934498 66.2407443 40.25390625 66.234375 C38.07812471 66.23503572 35.90234325 66.23631675 33.7265625 66.23828125 C32.73872772 66.23625702 31.75089294 66.23423279 30.73312378 66.23214722 C18.7495558 66.07885216 18.7495558 66.07885216 7.109375 68.37109375 C5.31008596 68.61903915 3.50563659 68.83039487 1.69921875 69.01953125 C0.08950195 69.19742188 0.08950195 69.19742188 -1.55273438 69.37890625 C-3.79180413 69.62068977 -6.03138523 69.8577911 -8.27148438 70.08984375 C-14.30952709 70.76593192 -19.86338063 71.79107454 -25.64086914 73.67089844 C-28.92470107 74.69293099 -32.18547064 75.23783372 -35.578125 75.80859375 C-55.62338365 79.40706573 -75.31364772 86.04447333 -93.890625 94.37109375 C-94.73496094 94.74492188 -95.57929688 95.11875 -96.44921875 95.50390625 C-99.27339287 96.77121767 -102.08119865 98.0714225 -104.890625 99.37109375 C-106.15739733 99.94044861 -107.42433543 100.50943473 -108.69140625 101.078125 C-119.85424107 106.14409065 -130.39686574 112.04565768 -140.890625 118.37109375 C-141.60138184 118.79680664 -142.31213867 119.22251953 -143.04443359 119.66113281 C-153.07541047 125.69434204 -162.58867501 132.26891249 -171.890625 139.37109375 C-172.50212402 139.83692871 -173.11362305 140.30276367 -173.74365234 140.78271484 C-180.53357682 145.97796782 -187.12910099 151.30044976 -193.4140625 157.10546875 C-195.44466634 158.96311895 -197.50465174 160.76350864 -199.58984375 162.55859375 C-204.35982458 166.72314537 -208.85406748 171.1425514 -213.328125 175.62109375 C-214.16923828 176.4630127 -215.01035156 177.30493164 -215.87695312 178.17236328 C-220.83666681 183.18128813 -225.53019587 188.2112563 -229.859375 193.77734375 C-231.82366241 196.28558768 -233.87197097 198.68715831 -235.95922852 201.09228516 C-240.95463948 206.86388909 -245.37407459 212.78772488 -249.64453125 219.12109375 C-251.95538217 222.46479455 -254.38745032 225.67133752 -256.890625 228.87109375 C-264.95867004 239.23206381 -272.16532707 250.09081316 -278.890625 261.37109375 C-279.53773438 262.43585938 -280.18484375 263.500625 -280.8515625 264.59765625 C-286.70810873 274.48202479 -291.39582854 284.80697011 -295.890625 295.37109375 C-296.20918457 296.11343262 -296.52774414 296.85577148 -296.85595703 297.62060547 C-307.93408732 323.72615141 -315.23588196 353.09051019 -316.44262695 381.45166016 C-316.48466657 382.41533319 -316.52670618 383.37900623 -316.57001972 384.37188148 C-316.98620014 394.60854393 -317.05459082 404.83821556 -317.05859375 415.08203125 C-317.06182217 417.07492088 -317.06518731 419.06781028 -317.06867981 421.06069946 C-317.07459713 425.19330393 -317.07652706 429.3258877 -317.07592773 433.45849609 C-317.07582561 438.70936186 -317.08956275 443.96009395 -317.10669994 449.21092796 C-317.11789531 453.31027825 -317.11984477 457.40959672 -317.11931801 461.50896072 C-317.12048351 463.4439198 -317.12482292 465.3788801 -317.13265038 467.3138237 C-317.1750469 478.85715433 -316.61473887 489.94949053 -314.890625 501.37109375 C-314.57798571 503.69624735 -314.26768605 506.02171818 -313.9609375 508.34765625 C-311.8829452 523.66929288 -311.8829452 523.66929288 -308.078125 538.62109375 C-306.75650836 542.79461999 -305.61489993 547.0006422 -304.46972656 551.2253418 C-300.23098606 566.77474116 -295.92857603 582.50849366 -288.25 596.765625 C-286.890625 599.37109375 -286.890625 599.37109375 -285.58984375 602.4609375 C-275.66503333 625.99973579 -261.71136377 647.44299506 -245.890625 667.37109375 C-244.81361328 668.75167969 -244.81361328 668.75167969 -243.71484375 670.16015625 C-241.80344973 672.58996149 -239.8552379 674.98414564 -237.890625 677.37109375 C-237.10558594 678.34175781 -236.32054687 679.31242188 -235.51171875 680.3125 C-229.03813734 688.17633293 -222.00783805 695.46717677 -214.828125 702.68359375 C-213.91853027 703.60237305 -213.00893555 704.52115234 -212.07177734 705.46777344 C-205.98641644 711.52578687 -199.6316662 717.0559514 -192.890625 722.37109375 C-192.29338623 722.84796631 -191.69614746 723.32483887 -191.08081055 723.81616211 C-176.75962686 735.18839024 -161.83174352 745.41133304 -145.890625 754.37109375 C-144.91738281 754.9228125 -143.94414062 755.47453125 -142.94140625 756.04296875 C-131.26161225 762.53756273 -119.30843834 768.42931089 -106.890625 773.37109375 C-105.67375 773.87640625 -104.456875 774.38171875 -103.203125 774.90234375 C-96.63975442 777.61389695 -90.14403307 779.992105 -83.2421875 781.72265625 C-80.890625 782.37109375 -80.890625 782.37109375 -77.265625 783.93359375 C-74.66760495 785.04015785 -72.66589469 785.71351867 -69.9609375 786.27734375 C-66.27043212 787.06805941 -62.59451291 787.90323396 -58.921875 788.7734375 C-46.62680622 791.66892713 -34.36809522 794.38999124 -21.890625 796.37109375 C-21.890625 796.70109375 -21.890625 797.03109375 -21.890625 797.37109375 C-28.96489984 797.58324884 -35.49560011 796.79681149 -42.453125 795.55859375 C-44.03323364 795.28511108 -44.03323364 795.28511108 -45.64526367 795.00610352 C-48.72855839 794.46927463 -51.80969946 793.92133263 -54.890625 793.37109375 C-55.71240234 793.22736328 -56.53417969 793.08363281 -57.38085938 792.93554688 C-64.77026751 791.64288279 -72.05554783 790.19279504 -79.26953125 788.11328125 C-82.02459479 787.33315894 -84.79325126 786.66147298 -87.578125 785.99609375 C-95.12314239 784.12948789 -102.49502414 781.74993352 -109.890625 779.37109375 C-110.71304687 779.11457031 -111.53546875 778.85804688 -112.3828125 778.59375 C-121.78061502 775.59709221 -131.13346028 771.9315515 -139.86328125 767.3359375 C-142.33751539 766.15841181 -144.87061269 765.28790241 -147.453125 764.37109375 C-163.88008432 758.15857781 -179.25273273 748.90894795 -194.04833984 739.53613281 C-195.64067542 738.52915887 -197.24326102 737.53842746 -198.84765625 736.55078125 C-210.85099629 729.10043226 -222.40249403 720.91272216 -233.13671875 711.7265625 C-235.82574094 709.42659033 -238.56716003 707.20883834 -241.328125 704.99609375 C-257.6322098 691.63322879 -273.98320181 676.57844481 -286.91015625 659.91015625 C-288.7851237 657.50635183 -290.75034933 655.20481018 -292.75341797 652.9074707 C-314.45107927 627.89902582 -331.8573546 598.26838209 -345.890625 568.37109375 C-346.22400879 567.66178711 -346.55739258 566.95248047 -346.90087891 566.22167969 C-351.56279858 556.21528805 -355.62398972 546.11013791 -359.12548828 535.64306641 C-359.93551097 533.23781078 -360.76939281 530.84162832 -361.60546875 528.4453125 C-369.26120208 506.30257609 -374.173388 483.88590826 -378.26416016 460.86376953 C-378.65254592 458.69843568 -379.05126994 456.53489528 -379.46630859 454.37451172 C-385.16657596 424.61350578 -384.41423761 392.06760478 -381.17285156 362.03808594 C-380.88194604 359.28907912 -380.62822383 356.53857516 -380.3828125 353.78515625 C-380.21937884 352.00124436 -380.05534431 350.21738739 -379.890625 348.43359375 C-379.8198877 347.64654053 -379.74915039 346.8594873 -379.67626953 346.04858398 C-379.23260089 341.54054171 -378.48289275 337.22001904 -377.44824219 332.8112793 C-376.82123726 330.06744645 -376.27722155 327.31400357 -375.7421875 324.55078125 C-373.50580861 313.03397452 -371.22348178 301.62902601 -367.890625 290.37109375 C-367.70532227 289.74509277 -367.52001953 289.1190918 -367.32910156 288.47412109 C-362.95604115 273.82327728 -357.95083092 259.4121247 -351.890625 245.37109375 C-351.21580078 243.74494141 -351.21580078 243.74494141 -350.52734375 242.0859375 C-341.18819674 219.75757255 -329.47194103 198.39118625 -315.890625 178.37109375 C-315.33971191 177.55576172 -314.78879883 176.74042969 -314.22119141 175.90039062 C-307.70521691 166.30020033 -301.05742264 156.97271383 -293.40234375 148.24609375 C-290.99120008 145.48621546 -288.68419612 142.66642397 -286.390625 139.80859375 C-274.84486933 125.67218266 -261.91598897 112.07225455 -247.890625 100.37109375 C-246.97667969 99.57960938 -246.06273437 98.788125 -245.12109375 97.97265625 C-217.49814928 74.11766632 -186.91915511 54.52213435 -154.140625 38.55859375 C-153.04041016 38.01920166 -151.94019531 37.47980957 -150.80664062 36.92407227 C-144.02381832 33.6676502 -137.19733315 30.96564475 -130.08544922 28.5144043 C-127.43767381 27.56686248 -124.92721907 26.53639783 -122.3828125 25.34765625 C-116.44844624 22.62031471 -110.22845236 20.73102262 -104.015625 18.74609375 C-102.81292969 18.35164063 -101.61023438 17.9571875 -100.37109375 17.55078125 C-94.16326926 15.55564982 -88.12880526 13.94908335 -81.69433594 12.91601562 C-78.53177962 12.30134951 -75.53890671 11.39220667 -72.4609375 10.44140625 C-63.37927053 7.76916228 -54.12366195 6.55722349 -44.765625 5.24609375 C-42.12967905 4.86758649 -39.49413917 4.48635561 -36.8586731 4.10452271 C-35.23605578 3.87040714 -33.61309835 3.63862915 -31.98971558 3.40988159 C-28.67702274 2.93996128 -25.37749929 2.46088974 -22.08654785 1.85392761 C-14.67613533 0.49826901 -7.52678421 0.03740742 0 0 Z " fill="#E43D42" transform="translate(504.890625,-0.37109375)"/>
<path d="M0 0 C1.05961945 -0.00095673 2.11923889 -0.00191345 3.21096802 -0.00289917 C5.43442851 -0.00357437 7.65789105 -0.00176662 9.88134766 0.00244141 C13.24255915 0.00778824 16.60363639 0.00247921 19.96484375 -0.00390625 C34.0878197 -0.00933487 47.98971687 0.16957884 61.9453125 2.5703125 C63.5884761 2.84284355 65.23170539 3.11497878 66.875 3.38671875 C67.65327148 3.5170752 68.43154297 3.64743164 69.23339844 3.78173828 C72.00637368 4.23466177 74.78780772 4.61826183 77.5703125 5.0078125 C92.34898907 7.28437372 107.24399943 10.22590518 121.3828125 15.1328125 C123.14699603 15.72697652 124.91133423 16.3206814 126.67578125 16.9140625 C137.75449525 20.67274722 148.67741498 24.66999386 159.42382812 29.29589844 C161.34567945 30.11694858 163.27654683 30.91214335 165.2109375 31.703125 C186.44627251 40.51677402 209.43450914 52.19268017 226.984375 67.15625 C229.91641502 69.5725566 233.01547984 71.71672473 236.1328125 73.8828125 C243.64423862 79.14964534 250.51197914 85.06687388 257.3828125 91.1328125 C258.84094218 92.40387949 260.29923731 93.67475676 261.7578125 94.9453125 C262.36238281 95.47898437 262.96695313 96.01265625 263.58984375 96.5625 C264.84713501 97.66365705 266.11650203 98.7511062 267.39453125 99.828125 C271.48975124 103.30711189 275.06268752 106.9338951 278.53515625 111.03125 C280.5608566 113.33532355 282.69703817 115.48032408 284.8828125 117.6328125 C291.42719084 124.12228834 297.23993642 131.12991097 303.0703125 138.2578125 C303.62944336 138.9391626 304.18857422 139.6205127 304.76464844 140.32250977 C307.86643711 144.13934529 310.69351832 148.00888529 313.3828125 152.1328125 C314.49324592 153.70774094 315.60684308 155.28044094 316.72265625 156.8515625 C320.33199953 161.99374604 323.66560996 167.27609688 326.9453125 172.6328125 C327.48349609 173.50550781 328.02167969 174.37820312 328.57617188 175.27734375 C330.18539569 177.89160626 331.78422006 180.51203959 333.3828125 183.1328125 C333.89465088 183.95942383 334.40648926 184.78603516 334.93383789 185.63769531 C338.56164927 191.55832079 341.72584903 197.60801773 344.6953125 203.8828125 C345.1689624 204.88304443 345.6426123 205.88327637 346.13061523 206.91381836 C358.20821928 232.6878833 368.30750351 259.63710809 373.87255859 287.60644531 C374.38242028 290.13087053 374.93415374 292.64295246 375.49609375 295.15625 C377.98087946 306.51162074 379.3193359 317.79172836 380.165802 329.37937927 C380.37444549 332.02665173 380.63392277 334.6647715 380.89916992 337.30688477 C381.39378093 342.72740495 381.52808902 348.09092117 381.515625 353.53125 C381.51658173 354.4868985 381.51753845 355.442547 381.51852417 356.42715454 C381.51919981 358.43890448 381.51738888 360.45065668 381.51318359 362.46240234 C381.50788647 365.46587317 381.51311886 368.46919035 381.51953125 371.47265625 C381.5377446 407.2832393 381.5377446 407.2832393 377.9453125 423.6953125 C377.50765614 425.80047857 377.07145035 427.90594675 376.63671875 430.01171875 C376.42160645 431.03281738 376.20649414 432.05391602 375.98486328 433.10595703 C375.40255884 436.03353629 374.92592615 438.96017023 374.47265625 441.91015625 C372.44606107 454.31595863 368.85279255 466.38125195 365.08325195 478.35253906 C364.44173812 480.39418815 363.8113613 482.43906174 363.18164062 484.484375 C360.66936559 492.56144691 357.77549391 500.37873926 354.3828125 508.1328125 C353.82483555 509.46661827 353.26858672 510.80114964 352.71484375 512.13671875 C338.42441069 545.60351699 318.67426015 576.2647997 295.3828125 604.1328125 C294.51491978 605.18691975 293.64776101 606.24163164 292.78125 607.296875 C291.89863769 608.36735259 291.01582927 609.43766852 290.1328125 610.5078125 C288.94945312 611.94253906 288.94945312 611.94253906 287.7421875 613.40625 C285.39564025 616.11798838 282.94086273 618.62050981 280.3828125 621.1328125 C279.29376143 622.24171343 278.2066331 623.35250485 277.12109375 624.46484375 C275.97922944 625.62506179 274.83730151 626.78521721 273.6953125 627.9453125 C273.11458984 628.54279297 272.53386719 629.14027344 271.93554688 629.75585938 C270.45555674 631.25295923 268.92298468 632.69769981 267.3828125 634.1328125 C266.7228125 634.1328125 266.0628125 634.1328125 265.3828125 634.1328125 C265.0528125 635.1228125 264.7228125 636.1128125 264.3828125 637.1328125 C262.77121621 638.59188271 261.09306582 639.97823871 259.3828125 641.3203125 C255.88539996 644.10570379 252.47785313 646.91039099 249.1953125 649.9453125 C233.87521649 663.68151267 216.13468594 674.83864597 198.3828125 685.1328125 C197.70412109 685.52968262 197.02542969 685.92655273 196.32617188 686.33544922 C180.96400351 695.27543686 164.92211099 702.64488561 148.3828125 709.1328125 C146.56716797 709.85404297 146.56716797 709.85404297 144.71484375 710.58984375 C133.95664162 714.7331247 123.01349197 718.11053454 111.95751953 721.36621094 C109.79846096 722.00905599 107.64983727 722.67439243 105.50390625 723.359375 C97.17983224 725.93423615 88.85338902 727.25643615 80.2421875 728.421875 C77.00417569 728.86731235 73.82923795 729.43614203 70.6328125 730.1171875 C49.21635497 734.50934808 27.13928538 734.58752978 5.3828125 734.1328125 C5.3828125 733.8028125 5.3828125 733.4728125 5.3828125 733.1328125 C6.944552 732.98247559 6.944552 732.98247559 8.5378418 732.82910156 C39.31316916 729.84192353 68.07247421 725.19614593 97.3828125 715.1328125 C98.92397632 714.63126472 100.46556967 714.13103251 102.0078125 713.6328125 C111.00383637 710.62848 119.74599539 707.03740687 128.3828125 703.1328125 C129.53692627 702.61400513 129.53692627 702.61400513 130.71435547 702.0847168 C157.49348146 689.94878581 183.11856977 674.42615942 205.3828125 655.1328125 C206.37925781 654.318125 207.37570312 653.5034375 208.40234375 652.6640625 C216.05730366 646.36178171 223.16510362 639.55978443 230.1953125 632.5703125 C231.06655762 631.70825195 231.93780273 630.84619141 232.83544922 629.95800781 C238.77426806 623.99094654 244.13037954 617.70601364 249.3828125 611.1328125 C250.31760115 610.01247046 251.25668925 608.89567661 252.203125 607.78515625 C257.301437 601.77951754 261.99964541 595.67485294 266.3828125 589.1328125 C267.14926253 588.01269426 267.91622318 586.8929253 268.68359375 585.7734375 C284.1339279 563.09142092 296.74859872 538.83527792 306.3828125 513.1328125 C306.64835938 512.44832031 306.91390625 511.76382812 307.1875 511.05859375 C309.60658131 504.79344497 311.68130907 498.40446614 313.76416016 492.02148438 C314.33118253 490.29043265 314.9091872 488.56298831 315.48828125 486.8359375 C317.94838332 479.25769204 319.58219143 471.65152163 320.92041016 463.81005859 C321.4787435 460.57738518 322.06233587 457.34955374 322.64453125 454.12109375 C323.09965013 451.56262296 323.5540717 449.00402804 324.0078125 446.4453125 C324.22622803 445.23423828 324.44464355 444.02316406 324.66967773 442.77539062 C331.16052367 405.60399112 329.48881995 365.09766631 322.3828125 328.1328125 C322.19638184 327.13072754 322.00995117 326.12864258 321.81787109 325.09619141 C320.25507207 316.86013723 318.21518181 308.88432753 315.3125 301.00390625 C314.54067903 298.62034149 313.99578316 296.36464981 313.49609375 293.91796875 C312.3912664 288.78254781 310.61240475 284.01397158 308.6953125 279.1328125 C308.33864502 278.21491943 307.98197754 277.29702637 307.61450195 276.35131836 C306.8863394 274.48520972 306.15452935 272.62051994 305.41894531 270.75732422 C304.77568145 269.12794473 304.13627119 267.49703144 303.50292969 265.86376953 C294.72364109 243.23213036 283.15633132 222.09405876 269.3828125 202.1328125 C268.63515625 201.04613281 267.8875 199.95945312 267.1171875 198.83984375 C258.26886252 186.13757362 248.51094487 174.18478428 237.94140625 162.87890625 C235.47631442 160.23316647 233.0836425 157.53525173 230.6953125 154.8203125 C227.47496787 151.23453869 224.14006935 147.99870285 220.45703125 144.89453125 C218.16639859 142.94900332 215.96761354 140.91957855 213.7578125 138.8828125 C192.03741267 119.32116801 167.18392569 103.67426991 141.3828125 90.1328125 C140.21443848 89.51865479 140.21443848 89.51865479 139.02246094 88.89208984 C131.91424682 85.18092989 124.83288197 81.65181863 117.203125 79.1171875 C114.68663083 78.23885435 112.2352744 77.27795229 109.765625 76.27734375 C96.91444709 71.10305996 83.80046002 66.1244658 70.125 63.703125 C67.3828125 63.1328125 67.3828125 63.1328125 64.94140625 62.12109375 C61.80921508 60.91125502 58.9055969 60.57473272 55.5703125 60.1953125 C50.31646783 59.5682946 45.1920527 58.71763248 40.0078125 57.6328125 C15.49702623 52.86632602 -9.77233398 53.82067021 -34.6171875 54.1328125 C-35.60521362 54.14483704 -36.59323975 54.15686157 -37.61120605 54.16925049 C-79.53915045 53.98728668 -79.53915045 53.98728668 -120.81640625 60.1953125 C-123.9799256 60.9756256 -127.09244809 61.60606167 -130.3046875 62.1328125 C-148.70145072 65.41199386 -166.82368077 72.01155889 -183.6171875 80.1328125 C-184.89338961 80.71215687 -186.17084611 81.2887422 -187.44921875 81.86328125 C-222.62303425 97.79957192 -251.68549408 121.84256103 -278.6171875 149.1328125 C-278.6171875 145.56211365 -277.99241556 144.97325951 -275.8046875 142.2578125 C-275.16402344 141.46246094 -274.52335937 140.66710937 -273.86328125 139.84765625 C-272.75146484 138.50380859 -272.75146484 138.50380859 -271.6171875 137.1328125 C-270.78316406 136.12347656 -269.94914062 135.11414063 -269.08984375 134.07421875 C-254.42129038 116.47141975 -238.71415303 99.25456133 -220.6171875 85.1328125 C-218.76028003 83.55269442 -216.90627274 81.96916384 -215.0546875 80.3828125 C-203.31417624 70.59397065 -190.78040735 61.89067194 -177.6171875 54.1328125 C-176.80636719 53.6378125 -175.99554688 53.1428125 -175.16015625 52.6328125 C-172.66015163 51.10710487 -170.14364638 49.61433371 -167.6171875 48.1328125 C-167.06256836 47.80700195 -166.50794922 47.48119141 -165.93652344 47.14550781 C-152.84486865 39.49763038 -139.27691096 32.48040445 -125.08984375 27.078125 C-123.19045664 26.35197701 -121.30478917 25.58986191 -119.42578125 24.8125 C-100.56058324 17.03849176 -81.28824188 10.86685075 -61.109375 7.625 C-58.50454645 7.15925983 -58.50454645 7.15925983 -55.609375 6.17578125 C-50.16255215 4.57663294 -44.49148701 4.1819308 -38.8671875 3.5703125 C-36.62208008 3.32184715 -34.37727045 3.07067165 -32.1328125 2.81640625 C-31.14571289 2.70868896 -30.15861328 2.60097168 -29.14160156 2.48999023 C-26.49845925 2.19334993 -26.49845925 2.19334993 -23.6171875 1.1328125 C-15.76644733 0.15759196 -7.90112776 -0.01619067 0 0 Z " fill="#BED041" transform="translate(538.6171875,64.8671875)"/>
<path d="M0 0 C0.80926437 -0.00570007 1.61852875 -0.01140015 2.45231628 -0.01727295 C4.16082477 -0.02666774 5.86935093 -0.03323479 7.57788086 -0.03710938 C10.12323078 -0.04670632 12.66773324 -0.07773664 15.21289062 -0.109375 C26.86052918 -0.18366939 37.92003668 1.03769965 49.35546875 3.203125 C50.62052246 3.43660645 51.88557617 3.67008789 53.18896484 3.91064453 C77.52595855 8.56038011 102.94096301 18.0574261 123.35546875 32.203125 C123.9788916 32.62577637 124.60231445 33.04842773 125.24462891 33.48388672 C155.66118629 54.11830687 179.91409294 79.81257168 197.3203125 112.30859375 C198.09283648 113.7224584 198.93108424 115.10077402 199.80078125 116.45703125 C201.7056264 119.82161954 202.99574406 123.32540871 204.29296875 126.953125 C205.86231428 131.26097124 207.42092096 135.50852205 209.41796875 139.640625 C219.35533771 161.65952551 221.58774285 187.51815831 221.66796875 211.390625 C221.67058716 212.13890564 221.67320557 212.88718628 221.67590332 213.65814209 C221.68082615 226.85448958 220.36386564 239.32760595 217.35546875 252.203125 C217.18998535 252.94643066 217.02450195 253.68973633 216.85400391 254.45556641 C204.56615917 309.40640725 171.93635719 357.73011724 124.35546875 388.203125 C118.77362985 391.68733886 113.08788081 394.97436452 107.35546875 398.203125 C106.28425781 398.82058594 105.21304687 399.43804688 104.109375 400.07421875 C71.16412152 417.8835755 34.05190118 421.74204685 -2.64453125 421.203125 C-2.31453125 420.543125 -1.98453125 419.883125 -1.64453125 419.203125 C0.82262831 418.67357338 3.23800499 418.25731775 5.73046875 417.890625 C43.48657537 411.73530616 77.34460422 394.95901972 104.98974609 368.50585938 C106.09641542 367.45023057 107.21790741 366.41015586 108.34375 365.375 C125.92938082 348.7546902 140.76634603 323.99630651 148.35546875 301.203125 C148.59749023 300.5117041 148.83951172 299.8202832 149.08886719 299.10791016 C153.2214476 287.28484789 155.88485404 275.63846996 157.35546875 263.203125 C157.44828125 262.44644531 157.54109375 261.68976563 157.63671875 260.91015625 C160.8190389 232.59211894 157.94027867 203.75330213 147.35546875 177.203125 C146.97334229 176.22424316 146.97334229 176.22424316 146.58349609 175.22558594 C135.2407198 146.56640821 117.14086316 119.86144675 92.35546875 101.203125 C91.72431152 100.71875977 91.0931543 100.23439453 90.44287109 99.73535156 C75.22302932 88.09938691 59.37216027 78.29040666 41.0546875 72.41015625 C37.95248616 71.39792794 35.02825339 70.25829714 32.04296875 68.953125 C27.67497861 67.16621994 23.40407435 66.3797285 18.73950195 65.73730469 C15.36263537 65.20425627 12.09455218 64.45030895 8.765625 63.67578125 C-0.93357183 61.6239545 -10.64345402 61.65403859 -20.51953125 61.703125 C-21.94001266 61.70576859 -21.94001266 61.70576859 -23.38919067 61.70846558 C-38.65083346 61.77170776 -52.93275956 62.82556964 -67.64453125 67.203125 C-68.50900879 67.45481445 -69.37348633 67.70650391 -70.26416016 67.96582031 C-118.29094251 82.37657403 -156.06181917 114.48751881 -179.87109375 158.2421875 C-189.88945541 177.22609365 -198.08697214 199.55969428 -198.64453125 221.203125 C-198.97453125 221.203125 -199.30453125 221.203125 -199.64453125 221.203125 C-200.06311409 185.81033557 -200.06311409 185.81033557 -197.64453125 173.203125 C-197.52625977 172.53877441 -197.40798828 171.87442383 -197.28613281 171.18994141 C-192.32367495 143.73227061 -180.99442452 117.39716323 -165.64453125 94.203125 C-165.23090332 93.57712402 -164.81727539 92.95112305 -164.39111328 92.30615234 C-156.30372221 80.22233183 -146.74974025 67.67219417 -135.64453125 58.203125 C-134.98453125 58.203125 -134.32453125 58.203125 -133.64453125 58.203125 C-133.64453125 57.543125 -133.64453125 56.883125 -133.64453125 56.203125 C-131.73046875 54.42578125 -131.73046875 54.42578125 -129.01953125 52.265625 C-128.0140625 51.46382812 -127.00859375 50.66203125 -125.97265625 49.8359375 C-125.43060547 49.40829102 -124.88855469 48.98064453 -124.33007812 48.54003906 C-122.62650122 47.18882424 -120.93939719 45.81899727 -119.25390625 44.4453125 C-111.7341568 38.36244433 -104.02223705 33.07017313 -95.64453125 28.203125 C-94.4876006 27.50633722 -93.33136246 26.80839846 -92.17578125 26.109375 C-85.59159394 22.17601179 -78.99523021 18.94401983 -71.7578125 16.34375 C-68.83411784 15.27258458 -66.04294483 14.04766891 -63.20703125 12.765625 C-48.43934015 6.58153243 -32.44618022 3.37780738 -16.64453125 1.203125 C-15.42145264 1.03111572 -14.19837402 0.85910645 -12.93823242 0.68188477 C-8.61880126 0.14749807 -4.34886062 0.02457131 0 0 Z " fill="#02B1D5" transform="translate(538.64453125,176.796875)"/>
<path d="M0 0 C7.0401382 5.01472582 10.83455973 11.39921064 13.25390625 19.60546875 C13.85889269 23.58075096 13.968426 27.46332334 13.94140625 31.48046875 C13.93488037 33.10879639 13.93488037 33.10879639 13.92822266 34.77001953 C13.62850124 45.60280788 10.74784309 54.82523688 6.25390625 64.60546875 C5.75246094 65.70375 5.25101563 66.80203125 4.734375 67.93359375 C-2.71665491 82.63039103 -14.48536207 95.04144259 -30.0390625 100.87109375 C-36.78292121 102.70059655 -43.32101355 102.74065651 -49.62109375 99.54296875 C-53.8475484 96.79653613 -57.0009047 93.83432934 -59.74609375 89.60546875 C-60.23335937 88.86683594 -60.720625 88.12820313 -61.22265625 87.3671875 C-67.50993693 75.51267783 -66.70076428 58.48834094 -63.30273438 45.80981445 C-57.47272055 27.40710916 -45.16387951 9.1432337 -27.97265625 -0.27734375 C-18.79875333 -4.88038977 -9.02455786 -5.17137585 0 0 Z " fill="#FCFCFC" transform="translate(613.74609375,294.39453125)"/>
<path d="M0 0 C0.91136719 0.24234375 1.82273437 0.4846875 2.76171875 0.734375 C13.25014696 3.46725593 23.80658414 5.56643831 34.46386719 7.52441406 C38.65057063 8.30952172 42.82542861 9.15306616 47 10 C47 10.33 47 10.66 47 11 C39.92557781 11.21215951 33.39522622 10.42517245 26.4375 9.1875 C25.39207031 9.00735352 24.34664063 8.82720703 23.26953125 8.64160156 C14.83102899 7.17730372 6.40765148 5.63207352 -2 4 C-1.01 3.34 -0.02 2.68 1 2 C0.67 1.34 0.34 0.68 0 0 Z " fill="#DC4F3F" transform="translate(436,786)"/>
<path d="M0 0 C0.33 0 0.66 0 1 0 C1.33 2.31 1.66 4.62 2 7 C2.33 5.35 2.66 3.7 3 2 C3.33 2 3.66 2 4 2 C4 10.91 4 19.82 4 29 C1.47491599 25.21237399 1.31019349 21.72507659 0.875 17.3125 C0.78863281 16.53455078 0.70226562 15.75660156 0.61328125 14.95507812 C0.08662336 9.94346851 -0.0806117 5.03823103 0 0 Z " fill="#DC8447" transform="translate(917,382)"/>
<path d="M0 0 C8.25 2.97 16.5 5.94 25 9 C17.32699682 11.55766773 7.1045524 6.09645315 0 3 C0 2.01 0 1.02 0 0 Z " fill="#5CB2D2" transform="translate(446,582)"/>
<path d="M0 0 C0.33 0 0.66 0 1 0 C1.10808032 7.09727428 0.93854006 13.96094956 0 21 C-0.33 21 -0.66 21 -1 21 C-1.94351599 13.46462229 -2.07726572 7.33152608 0 0 Z " fill="#83CAB7" transform="translate(758,414)"/>
<path d="M0 0 C-1.49097658 3.7952131 -3.75700849 5.61042731 -7 8 C-4.18918919 0 -4.18918919 0 0 0 Z " fill="#C2BF4D" transform="translate(266,206)"/>
<path d="M0 0 C0.33 0 0.66 0 1 0 C1.36923077 6.52307692 1.36923077 6.52307692 -0.5 8.9375 C-0.995 9.288125 -1.49 9.63875 -2 10 C-1.125 2.25 -1.125 2.25 0 0 Z " fill="#85D1E3" transform="translate(756,427)"/>
</svg>
